<?xml version="1.0" encoding="utf-8"?>
<!-- Generator: Adobe Illustrator 24.2.1, SVG Export Plug-In . SVG Version: 6.00 Build 0)  -->
<svg version="1.1" id="Layer_2" xmlns="http://www.w3.org/2000/svg" xmlns:xlink="http://www.w3.org/1999/xlink" x="0px" y="0px"
	 viewBox="0 0 420.94 297.64" style="enable-background:new 0 0 420.94 297.64;" xml:space="preserve">
<style type="text/css">
	.st0{fill:#009447;stroke:#009447;stroke-width:9;stroke-miterlimit:10;}
	.st1{fill:none;stroke:#000000;stroke-width:5;stroke-miterlimit:10;}
	.st2{fill:none;stroke:#000000;stroke-width:5.6693;stroke-linecap:round;stroke-miterlimit:10;}
	.st3{fill:none;stroke:#000000;stroke-width:5.6693;stroke-miterlimit:10;}
	.st4{fill:none;stroke:#000000;stroke-width:5;stroke-linecap:round;stroke-miterlimit:10;}
</style>
<circle class="st0" cx="207.01" cy="148.82" r="140.82"/>
<g id="Layer_1">
</g>
<path class="st1" d="M79.01,121.36"/>
<path class="st1" d="M110.05,182.73"/>
<path class="st2" d="M79.01,121.36c8.41-5.02,19.23-8.04,31.04-8.04c26.79,0,41.39,14.99,48.48,34.71"/>
<path class="st1" d="M110.05,114.19"/>
<path class="st2" d="M79.01,175.56c8.41,5.02,19.23,8.03,31.04,8.03c26.8,0,41.99-17.35,48.48-34.71"/>
<path class="st2" d="M335,121.36c-8.41-5.02-19.22-8.04-31.04-8.04c-26.79,0-41.39,14.99-48.48,34.71"/>
<path class="st2" d="M335,175.56c-8.41,5.02-19.22,8.03-31.04,8.03c-26.8,0-41.99-17.35-48.48-34.71"/>
<path class="st1" d="M110.05,182.73"/>
<path class="st3" d="M110.05,148.03"/>
<path class="st3" d="M110.05,148.03"/>
<path class="st1" d="M110.05,113.32"/>
<path class="st3" d="M110.05,148.03"/>
<path class="st3" d="M110.05,148.03"/>
<path class="st1" d="M238.05,121.36"/>
<path class="st1" d="M207.01,182.73"/>
<path class="st4" d="M238.05,121.36"/>
<path class="st1" d="M207.01,114.19"/>
<g>
	<path class="st2" d="M207.01,113.32c-26.79,0-41.39,14.99-48.48,34.71"/>
	<path class="st2" d="M207.01,183.6c-26.8,0-41.99-17.35-48.48-34.71"/>
</g>
<g>
	<path class="st2" d="M207.01,113.32c26.79,0,41.39,14.99,48.48,34.71"/>
	<path class="st2" d="M207.01,183.6c26.8,0,41.99-17.35,48.48-34.71"/>
</g>
<path class="st4" d="M238.05,175.56"/>
<path class="st1" d="M207.01,182.73"/>
<path class="st3" d="M207.01,148.03"/>
<path class="st3" d="M207.01,148.03"/>
<path class="st1" d="M207.01,113.32"/>
<path class="st3" d="M207.01,148.03"/>
<path class="st3" d="M207.01,148.03"/>
<line class="st2" x1="207.01" y1="124.28" x2="207.01" y2="173.5"/>
<line class="st2" x1="110.05" y1="124.28" x2="110.05" y2="173.5"/>
<line class="st2" x1="303.96" y1="124.28" x2="303.96" y2="173.5"/>
<line class="st2" x1="224.81" y1="128.76" x2="224.81" y2="169.03"/>
<line class="st2" x1="286.15" y1="128.76" x2="286.15" y2="169.03"/>
<line class="st2" x1="321.76" y1="128.76" x2="321.76" y2="169.03"/>
<line class="st2" x1="189.2" y1="128.76" x2="189.2" y2="169.03"/>
<line class="st2" x1="127.86" y1="128.76" x2="127.86" y2="169.03"/>
<line class="st2" x1="92.25" y1="128.76" x2="92.25" y2="169.03"/>
</svg>
