<?xml version="1.0" encoding="utf-8"?>
<!-- Generator: Adobe Illustrator 24.2.1, SVG Export Plug-In . SVG Version: 6.00 Build 0)  -->
<svg version="1.1" id="Layer_1" xmlns="http://www.w3.org/2000/svg" xmlns:xlink="http://www.w3.org/1999/xlink" x="0px" y="0px"
	 viewBox="0 0 297.64 420.94" style="enable-background:new 0 0 297.64 420.94;" xml:space="preserve">
<style type="text/css">
	.st0{fill:#F16623;stroke:#F16623;stroke-width:9;stroke-miterlimit:10;}
	.st1{fill:#F16623;stroke:#000000;stroke-width:13;stroke-miterlimit:10;}
	.st2{stroke:#000000;stroke-miterlimit:10;}
	.st3{fill:none;stroke:#000000;stroke-width:13;stroke-linecap:round;stroke-linejoin:round;stroke-miterlimit:10;}
	.st4{fill:#F16623;}
	.st5{fill:none;stroke:#F16623;stroke-width:7;stroke-linecap:round;stroke-linejoin:round;stroke-miterlimit:10;}
</style>
<circle class="st0" cx="148.82" cy="204.73" r="138.51"/>
<path class="st1" d="M175.08,242.71c0,6.63-5.37,12-12,12H77.13c-6.63,0-12-5.37-12-12v-85.95c0-6.63,5.37-12,12-12h85.95
	c6.63,0,12,5.37,12,12V242.71z"/>
<path class="st2" d="M228.46,138.25c7.42,0,13.44,4.67,13.44,10.43v119.63c0,5.76-6.02,10.43-13.44,10.43h-26.2
	c-7.42,0-13.44-4.67-13.44-10.43V148.68c0-5.76,6.02-10.43,13.44-10.43H228.46z"/>
<line class="st3" x1="60.73" y1="273.25" x2="181.48" y2="273.25"/>
<path class="st4" d="M221.03,260.5c0,3.13-2.54,5.67-5.67,5.67l0,0c-3.13,0-5.67-2.54-5.67-5.67l0,0c0-3.13,2.54-5.67,5.67-5.67l0,0
	C218.49,254.83,221.03,257.37,221.03,260.5L221.03,260.5z"/>
<line class="st5" x1="196.36" y1="157.67" x2="234.36" y2="157.67"/>
<line class="st5" x1="196.36" y1="174.67" x2="234.36" y2="174.67"/>
</svg>
