<?xml version="1.0" encoding="utf-8"?>
<!-- Generator: Adobe Illustrator 24.2.1, SVG Export Plug-In . SVG Version: 6.00 Build 0)  -->
<svg version="1.1" xmlns="http://www.w3.org/2000/svg" xmlns:xlink="http://www.w3.org/1999/xlink" x="0px" y="0px"
	 viewBox="0 0 297.64 420.94" style="enable-background:new 0 0 297.64 420.94;" xml:space="preserve">
<style type="text/css">
	.st0{fill:#F7EC32;stroke:#F7EC32;stroke-width:9;stroke-miterlimit:10;}
	.st1{stroke:#000000;stroke-linecap:round;stroke-linejoin:round;stroke-miterlimit:10;}
	.st2{fill:#F7EC32;stroke:#000000;stroke-miterlimit:10;}
	.st3{fill:#FFFFFF;stroke:#000000;stroke-miterlimit:10;}
	.st4{stroke:#000000;stroke-miterlimit:10;}
	.st5{fill:#F7EC32;}
</style>
<g id="guides">
	
		<ellipse transform="matrix(0.7071 -0.7071 0.7071 0.7071 -102.9845 166.3343)" class="st0" cx="149.29" cy="207.48" rx="138.52" ry="138.52"/>
</g>
<g id="Layer_1">
	<path class="st1" d="M224.81,269.2c0,7.63-6.18,13.81-13.81,13.81H87.57c-7.63,0-13.81-6.18-13.81-13.81V145.76
		c0-7.63,6.18-13.81,13.81-13.81h123.43c7.62,0,13.81,6.18,13.81,13.81V269.2z"/>
	<path class="st2" d="M200.82,126.25c0,6.32-5.13,11.45-11.45,11.45c-6.32,0-11.45-5.13-11.45-11.45c0-6.32,5.13-11.45,11.45-11.45
		C195.7,114.8,200.82,119.93,200.82,126.25z"/>
	<path class="st2" d="M200.82,288.71c0-6.32-5.13-11.45-11.45-11.45c-6.32,0-11.45,5.13-11.45,11.45s5.13,11.45,11.45,11.45
		C195.7,300.16,200.82,295.03,200.82,288.71z"/>
	<rect x="78.59" y="136.84" class="st2" width="12.8" height="12.8"/>
	<rect x="104.29" y="136.84" class="st2" width="12.8" height="12.8"/>
	<rect x="129.99" y="136.84" class="st2" width="12.8" height="12.8"/>
	<rect x="155.69" y="136.84" class="st2" width="12.8" height="12.8"/>
	<rect x="207.09" y="136.84" class="st2" width="12.8" height="12.8"/>
	<rect x="78.59" y="162.54" class="st2" width="12.8" height="12.8"/>
	<rect x="104.29" y="162.54" class="st3" width="12.8" height="12.8"/>
	<rect x="129.99" y="162.54" class="st3" width="12.8" height="12.8"/>
	<rect x="155.69" y="162.54" class="st3" width="12.8" height="12.8"/>
	<rect x="181.39" y="162.54" class="st3" width="12.8" height="12.8"/>
	<rect x="207.09" y="162.54" class="st2" width="12.8" height="12.8"/>
	<rect x="78.59" y="188.24" class="st2" width="12.8" height="12.8"/>
	<rect x="104.29" y="188.24" class="st3" width="12.8" height="12.8"/>
	<rect x="129.99" y="188.24" class="st3" width="12.8" height="12.8"/>
	<rect x="155.69" y="188.24" class="st3" width="12.8" height="12.8"/>
	<rect x="181.39" y="188.24" class="st3" width="12.8" height="12.8"/>
	<rect x="207.09" y="188.24" class="st2" width="12.8" height="12.8"/>
	<rect x="78.59" y="213.94" class="st2" width="12.8" height="12.8"/>
	<rect x="104.29" y="213.94" class="st3" width="12.8" height="12.8"/>
	<rect x="129.99" y="213.94" class="st3" width="12.8" height="12.8"/>
	<rect x="155.69" y="213.94" class="st3" width="12.8" height="12.8"/>
	<rect x="181.39" y="213.94" class="st3" width="12.8" height="12.8"/>
	<rect x="207.09" y="213.94" class="st2" width="12.8" height="12.8"/>
	<rect x="78.59" y="239.64" class="st2" width="12.8" height="12.8"/>
	<rect x="104.29" y="239.64" class="st3" width="12.8" height="12.8"/>
	<rect x="129.99" y="239.64" class="st3" width="12.8" height="12.8"/>
	<rect x="155.69" y="239.64" class="st3" width="12.8" height="12.8"/>
	<rect x="181.39" y="239.64" class="st3" width="12.8" height="12.8"/>
	<rect x="207.09" y="239.64" class="st2" width="12.8" height="12.8"/>
	<rect x="78.59" y="265.34" class="st2" width="12.8" height="12.8"/>
	<rect x="104.29" y="265.34" class="st2" width="12.8" height="12.8"/>
	<rect x="129.99" y="265.34" class="st2" width="12.8" height="12.8"/>
	<rect x="155.69" y="265.34" class="st2" width="12.8" height="12.8"/>
	<rect x="207.09" y="265.34" class="st2" width="12.8" height="12.8"/>
	<g>
		<rect x="104.34" y="162.53" class="st2" width="89.9" height="89.9"/>
		<rect x="142.91" y="176.33" class="st4" width="12.66" height="22.92"/>
		<rect x="142.91" y="215.54" class="st4" width="12.66" height="22.92"/>
		<rect x="165.74" y="176.33" class="st4" width="12.66" height="22.92"/>
		<rect x="165.74" y="215.54" class="st4" width="12.66" height="22.92"/>
		<rect x="118.72" y="176.33" class="st4" width="12.66" height="22.92"/>
		<rect x="118.72" y="215.54" class="st4" width="12.66" height="22.92"/>
	</g>
	<rect x="174.66" y="283.51" class="st5" width="29.15" height="18.72"/>
	<rect x="174.8" y="112.72" class="st5" width="29.15" height="18.72"/>
</g>
</svg>
