<?xml version="1.0" encoding="utf-8"?>
<!-- Generator: Adobe Illustrator 24.2.1, SVG Export Plug-In . SVG Version: 6.00 Build 0)  -->
<svg version="1.1" id="Layer_1" xmlns="http://www.w3.org/2000/svg" xmlns:xlink="http://www.w3.org/1999/xlink" x="0px" y="0px"
	 viewBox="0 0 297.64 420.94" style="enable-background:new 0 0 297.64 420.94;" xml:space="preserve">
<style type="text/css">
	.st0{stroke:#000000;stroke-width:9;stroke-miterlimit:10;}
	.st1{fill:#FFFFFF;}
	.st2{fill:none;stroke:#FFFFFF;stroke-width:4;stroke-linecap:round;stroke-linejoin:round;stroke-miterlimit:10;}
	.st3{fill:#FFFFFF;stroke:#FFFFFF;stroke-width:4;stroke-linecap:round;stroke-linejoin:round;stroke-miterlimit:10;}
	.st4{fill:none;stroke:#000000;stroke-width:9;stroke-miterlimit:10;}
</style>
<ellipse transform="matrix(0.7071 -0.7071 0.7071 0.7071 -103.9167 166.4567)" class="st0" cx="148.97" cy="208.67" rx="140.03" ry="140.03"/>
<ellipse transform="matrix(0.2298 -0.9732 0.9732 0.2298 -189.4095 266.3404)" class="st1" cx="73.56" cy="252.83" rx="19.19" ry="19.19"/>
<ellipse transform="matrix(0.6732 -0.7395 0.7395 0.6732 -148.4962 169.6708)" class="st1" cx="117.71" cy="252.83" rx="19.19" ry="19.19"/>
<path class="st1" d="M181.04,252.83c0,10.6-8.59,19.19-19.19,19.19c-10.6,0-19.19-8.59-19.19-19.19s8.59-19.19,19.19-19.19
	C172.45,233.65,181.04,242.24,181.04,252.83z"/>
<line class="st2" x1="73.56" y1="252.83" x2="73.56" y2="89.25"/>
<line class="st2" x1="117.71" y1="252.83" x2="117.71" y2="71.75"/>
<line class="st2" x1="161.85" y1="252.83" x2="161.85" y2="69.66"/>
<line class="st2" x1="245.62" y1="241.74" x2="184.61" y2="74.11"/>
<g>
	<path class="st1" d="M265.09,239.03c3.63,9.96-1.51,20.97-11.47,24.6c-9.96,3.62-20.97-1.51-24.6-11.47
		c-3.62-9.96,1.51-20.97,11.47-24.6C250.45,223.94,261.47,229.07,265.09,239.03z"/>
	<path class="st3" d="M247.06,245.59L206,132.78L247.06,245.59z"/>
</g>
<ellipse transform="matrix(0.7071 -0.7071 0.7071 0.7071 -103.9167 166.4567)" class="st4" cx="148.97" cy="208.67" rx="140.03" ry="140.03"/>
</svg>
