<?xml version="1.0" encoding="utf-8"?>
<!-- Generator: Adobe Illustrator 24.2.1, SVG Export Plug-In . SVG Version: 6.00 Build 0)  -->
<svg version="1.1" xmlns="http://www.w3.org/2000/svg" xmlns:xlink="http://www.w3.org/1999/xlink" x="0px" y="0px"
	 viewBox="0 0 297.64 420.94" style="enable-background:new 0 0 297.64 420.94;" xml:space="preserve">
<style type="text/css">
	.st0{display:none;}
	.st1{display:inline;}
	.st2{stroke:#000000;stroke-width:15;stroke-miterlimit:10;}
	.st3{fill:#FFFFFF;}
	.st4{fill:none;stroke:#000000;stroke-width:15;stroke-miterlimit:10;}
	.st5{stroke:#000000;stroke-width:2;stroke-linecap:round;stroke-linejoin:round;stroke-miterlimit:10;}
	.st6{fill:#472A18;stroke:#472A18;stroke-width:9;stroke-miterlimit:10;}
	.st7{fill:#FFFFFF;stroke:#FFFFFF;stroke-width:15;stroke-miterlimit:10;}
	.st8{fill:#472A18;stroke:#FFFFFF;stroke-miterlimit:10;}
	.st9{fill:none;stroke:#FFFFFF;stroke-width:20;stroke-miterlimit:10;}
	.st10{fill:#FFFFFF;stroke:#FFFFFF;stroke-width:10;stroke-linecap:round;stroke-linejoin:round;stroke-miterlimit:10;}
	.st11{fill:#FFFFFF;stroke:#000000;stroke-miterlimit:10;}
	.st12{fill:none;stroke:#000000;stroke-width:20;stroke-miterlimit:10;}
	.st13{stroke:#000000;stroke-width:10;stroke-linecap:round;stroke-linejoin:round;stroke-miterlimit:10;}
	.st14{stroke:#000000;stroke-width:8.4;stroke-miterlimit:10;}
	.st15{fill:#FFFFFF;stroke:#000000;stroke-width:0.56;stroke-miterlimit:10;}
	.st16{fill:none;stroke:#000000;stroke-width:11.2;stroke-miterlimit:10;}
	.st17{stroke:#000000;stroke-width:5.6;stroke-linecap:round;stroke-linejoin:round;stroke-miterlimit:10;}
</style>
<g id="innehåll" class="st0">
</g>
<g id="Layer_4" class="st0">
</g>
<g id="svart_ring" class="st0">
</g>
<g id="Layer_3" class="st0">
</g>
<g id="Layer_2" class="st0">
	<g class="st1">
		
			<ellipse transform="matrix(0.8575 -0.5145 0.5145 0.8575 -66.5625 104.3893)" class="st2" cx="155.17" cy="172.36" rx="63.98" ry="63.98"/>
		<path class="st3" d="M180.29,118.99c0,9.4-11.25,17.01-25.12,17.01c-13.87,0-25.12-7.62-25.12-17.01
			c0-9.4,11.25-17.01,25.12-17.01C169.05,101.98,180.29,109.59,180.29,118.99z"/>
		<path class="st3" d="M112.17,131.98c8.94,2.9,12.71,15.95,8.42,29.15c-4.29,13.19-15,21.53-23.94,18.63
			c-8.94-2.9-12.7-15.95-8.42-29.14C92.52,137.42,103.24,129.07,112.17,131.98z"/>
		<path class="st3" d="M103.48,200.78c5.52-7.6,19.1-7.15,30.32,1c11.22,8.15,15.84,20.93,10.32,28.53c-5.52,7.6-19.1,7.15-30.32-1
			C102.58,221.15,97.96,208.38,103.48,200.78z"/>
		<path class="st3" d="M166.22,230.3c-5.52-7.6-0.9-20.37,10.32-28.53c11.22-8.15,24.8-8.6,30.32-1c5.52,7.6,0.9,20.37-10.32,28.53
			C185.32,237.46,171.75,237.91,166.22,230.3z"/>
		<path class="st3" d="M213.7,179.76c-8.94,2.9-19.66-5.44-23.94-18.63c-4.29-13.19-0.52-26.24,8.42-29.14
			c8.94-2.9,19.65,5.44,23.94,18.63C226.4,163.8,222.63,176.85,213.7,179.76z"/>
		
			<ellipse transform="matrix(0.8575 -0.5145 0.5145 0.8575 -66.5625 104.3893)" class="st4" cx="155.17" cy="172.36" rx="63.98" ry="63.98"/>
		<path class="st3" d="M166.36,172.36c0,6.18-5.01,11.19-11.19,11.19c-6.18,0-11.19-5.01-11.19-11.19c0-6.18,5.01-11.19,11.19-11.19
			C161.35,161.17,166.36,166.18,166.36,172.36z"/>
		<g>
			<polygon class="st5" points="155.17,101.79 145.42,101.79 150.3,80.99 155.17,80.99 			"/>
			<polygon class="st5" points="155.17,101.79 164.92,101.79 160.05,80.99 155.17,80.99 			"/>
		</g>
		<g>
			<polygon class="st5" points="185.78,108.77 176.99,104.54 190.4,87.92 194.8,90.03 			"/>
			<polygon class="st5" points="185.78,108.77 194.56,113 199.19,92.14 194.8,90.03 			"/>
		</g>
		<g>
			<polygon class="st5" points="210.33,128.33 204.24,120.71 223.54,111.55 226.58,115.36 			"/>
			<polygon class="st5" points="210.33,128.33 216.41,135.95 229.62,119.17 226.58,115.36 			"/>
		</g>
		<g>
			<polygon class="st5" points="223.96,156.61 221.79,147.1 243.15,147.21 244.24,151.96 			"/>
			<polygon class="st5" points="223.96,156.61 226.14,166.11 245.33,156.72 244.24,151.96 			"/>
		</g>
		<g>
			<polygon class="st5" points="223.99,188 226.15,178.49 245.35,187.85 244.27,192.6 			"/>
			<polygon class="st5" points="223.99,188 221.83,197.5 243.19,197.36 244.27,192.6 			"/>
		</g>
		<g>
			<polygon class="st5" points="210.4,216.29 216.47,208.66 229.71,225.43 226.68,229.24 			"/>
			<polygon class="st5" points="210.4,216.29 204.33,223.92 223.65,233.05 226.68,229.24 			"/>
		</g>
		<g>
			<polygon class="st5" points="185.89,235.9 194.67,231.65 199.33,252.5 194.94,254.62 			"/>
			<polygon class="st5" points="185.89,235.9 177.11,240.14 190.55,256.74 194.94,254.62 			"/>
		</g>
		<g>
			<polygon class="st5" points="155.3,242.93 165.05,242.91 160.21,263.72 155.33,263.73 			"/>
			<polygon class="st5" points="155.3,242.93 145.55,242.95 150.46,263.74 155.33,263.73 			"/>
		</g>
		<g>
			<polygon class="st5" points="124.68,236 133.47,240.22 120.09,256.87 115.69,254.76 			"/>
			<polygon class="st5" points="124.68,236 115.89,231.79 111.3,252.65 115.69,254.76 			"/>
		</g>
		<g>
			<polygon class="st5" points="100.1,216.48 106.19,224.09 86.91,233.29 83.87,229.49 			"/>
			<polygon class="st5" points="100.1,216.48 94,208.88 80.82,225.68 83.87,229.49 			"/>
		</g>
		<g>
			<polygon class="st5" points="86.41,188.23 88.61,197.74 67.24,197.66 66.15,192.91 			"/>
			<polygon class="st5" points="86.41,188.23 84.22,178.74 65.05,188.16 66.15,192.91 			"/>
		</g>
		<g>
			<polygon class="st5" points="86.33,156.85 84.19,166.36 64.97,157.03 66.04,152.27 			"/>
			<polygon class="st5" points="86.33,156.85 88.47,147.34 67.11,147.52 66.04,152.27 			"/>
		</g>
		<g>
			<polygon class="st5" points="99.87,128.53 93.81,136.17 80.54,119.43 83.57,115.61 			"/>
			<polygon class="st5" points="99.87,128.53 105.92,120.89 86.6,111.79 83.57,115.61 			"/>
		</g>
		<g>
			<polygon class="st5" points="124.35,108.88 115.58,113.14 110.88,92.3 115.26,90.17 			"/>
			<polygon class="st5" points="124.35,108.88 133.12,104.62 119.65,88.04 115.26,90.17 			"/>
		</g>
	</g>
</g>
<g id="Layer_2_copy">
	<circle class="st6" cx="149.48" cy="208.84" r="136.16"/>
	<g>
		
			<ellipse transform="matrix(0.9652 -0.2615 0.2615 0.9652 -49.3589 46.6705)" class="st7" cx="150.72" cy="208.84" rx="67.7" ry="67.7"/>
		<path class="st8" d="M177.3,152.36c0,9.94-11.9,18-26.58,18c-14.68,0-26.58-8.06-26.58-18c0-9.94,11.9-18,26.58-18
			C165.4,134.36,177.3,142.42,177.3,152.36z"/>
		<path class="st8" d="M105.22,166.11c9.46,3.07,13.44,16.88,8.91,30.84c-4.54,13.96-15.88,22.79-25.33,19.71
			c-9.46-3.07-13.44-16.88-8.91-30.84C84.43,171.86,95.77,163.04,105.22,166.11z"/>
		<path class="st8" d="M96.02,238.91c5.84-8.04,20.21-7.57,32.08,1.06c11.88,8.63,16.76,22.14,10.92,30.19
			c-5.84,8.04-20.21,7.57-32.08-1.06C95.07,260.46,90.18,246.95,96.02,238.91z"/>
		<path class="st8" d="M162.41,270.15c-5.84-8.04-0.95-21.56,10.92-30.19c11.88-8.63,26.24-9.1,32.08-1.06
			c5.84,8.04,0.95,21.56-10.92,30.18C182.62,277.72,168.26,278.2,162.41,270.15z"/>
		<path class="st8" d="M212.65,216.67c-9.46,3.07-20.8-5.75-25.33-19.71c-4.54-13.96-0.55-27.77,8.91-30.84
			c9.46-3.07,20.8,5.75,25.33,19.71C226.09,199.79,222.1,213.59,212.65,216.67z"/>
		
			<ellipse transform="matrix(0.9652 -0.2615 0.2615 0.9652 -49.3589 46.6705)" class="st9" cx="150.72" cy="208.84" rx="67.7" ry="67.7"/>
		<path class="st8" d="M162.56,208.84c0,6.54-5.3,11.84-11.84,11.84c-6.54,0-11.84-5.3-11.84-11.84c0-6.54,5.3-11.84,11.84-11.84
			C157.26,197,162.56,202.3,162.56,208.84z"/>
		<g>
			<polygon class="st10" points="150.72,137.54 130.21,137.54 140.46,113.23 150.72,113.23 			"/>
			<polygon class="st10" points="150.72,137.54 171.24,137.54 160.98,113.23 150.72,113.23 			"/>
		</g>
		<g>
			<polygon class="st10" points="201.14,158.42 186.63,143.91 211.08,133.98 218.33,141.23 			"/>
			<polygon class="st10" points="201.14,158.42 215.65,172.93 225.58,148.49 218.33,141.23 			"/>
		</g>
		<g>
			<polygon class="st10" points="222.02,208.84 222.02,188.32 246.34,198.58 246.34,208.84 			"/>
			<polygon class="st10" points="222.02,208.84 222.02,229.35 246.34,219.1 246.34,208.84 			"/>
		</g>
		<g>
			<polygon class="st10" points="201.14,259.26 215.65,244.75 225.59,269.19 218.33,276.45 			"/>
			<polygon class="st10" points="201.14,259.26 186.63,273.76 211.08,283.7 218.33,276.45 			"/>
		</g>
		<g>
			<polygon class="st10" points="150.72,280.14 171.24,280.14 160.99,304.45 150.72,304.45 			"/>
			<polygon class="st10" points="150.72,280.14 130.21,280.14 140.47,304.45 150.72,304.45 			"/>
		</g>
		<g>
			<polygon class="st10" points="100.31,259.26 114.81,273.76 90.37,283.71 83.11,276.45 			"/>
			<polygon class="st10" points="100.31,259.26 85.8,244.75 75.86,269.2 83.11,276.45 			"/>
		</g>
		<g>
			<polygon class="st10" points="79.42,208.84 79.42,229.36 55.11,219.1 55.11,208.84 			"/>
			<polygon class="st10" points="79.42,208.84 79.42,188.32 55.11,198.58 55.11,208.84 			"/>
		</g>
		<g>
			<polygon class="st10" points="100.31,158.42 85.8,172.93 75.86,148.49 83.12,141.23 			"/>
			<polygon class="st10" points="100.31,158.42 114.81,143.92 90.37,133.98 83.12,141.23 			"/>
		</g>
	</g>
</g>
<g id="Layer_2_copy_2" class="st0">
	<g class="st1">
		
			<ellipse transform="matrix(0.8575 -0.5145 0.5145 0.8575 -66.5625 104.3893)" class="st2" cx="155.17" cy="172.36" rx="63.98" ry="63.98"/>
		<path class="st11" d="M180.29,118.99c0,9.4-11.25,17.01-25.12,17.01c-13.87,0-25.12-7.62-25.12-17.01
			c0-9.4,11.25-17.01,25.12-17.01C169.05,101.98,180.29,109.59,180.29,118.99z"/>
		<path class="st11" d="M112.17,131.98c8.94,2.9,12.71,15.95,8.42,29.15c-4.29,13.19-15,21.53-23.94,18.63
			c-8.94-2.9-12.7-15.95-8.42-29.14C92.52,137.42,103.24,129.07,112.17,131.98z"/>
		<path class="st11" d="M103.48,200.78c5.52-7.6,19.1-7.15,30.32,1c11.22,8.15,15.84,20.93,10.32,28.53c-5.52,7.6-19.1,7.15-30.32-1
			C102.58,221.15,97.96,208.38,103.48,200.78z"/>
		<path class="st11" d="M166.22,230.3c-5.52-7.6-0.9-20.37,10.32-28.53c11.22-8.15,24.8-8.6,30.32-1c5.52,7.6,0.9,20.37-10.32,28.53
			C185.32,237.46,171.75,237.91,166.22,230.3z"/>
		<path class="st11" d="M213.7,179.76c-8.94,2.9-19.66-5.44-23.94-18.63c-4.29-13.19-0.52-26.24,8.42-29.14
			c8.94-2.9,19.65,5.44,23.94,18.63C226.4,163.8,222.63,176.85,213.7,179.76z"/>
		
			<ellipse transform="matrix(0.8575 -0.5145 0.5145 0.8575 -66.5625 104.3893)" class="st12" cx="155.17" cy="172.36" rx="63.98" ry="63.98"/>
		<path class="st11" d="M166.36,172.36c0,6.18-5.01,11.19-11.19,11.19c-6.18,0-11.19-5.01-11.19-11.19
			c0-6.18,5.01-11.19,11.19-11.19C161.35,161.17,166.36,166.18,166.36,172.36z"/>
		<g>
			<polygon class="st13" points="155.17,104.98 135.78,104.98 145.48,82 155.17,82 			"/>
			<polygon class="st13" points="155.17,104.98 174.56,104.98 164.87,82 155.17,82 			"/>
		</g>
		<g>
			<polygon class="st13" points="202.82,124.71 189.11,111 212.21,101.61 219.07,108.47 			"/>
			<polygon class="st13" points="202.82,124.71 216.53,138.42 225.92,115.32 219.07,108.47 			"/>
		</g>
		<g>
			<polygon class="st13" points="222.56,172.36 222.56,152.97 245.54,162.66 245.53,172.36 			"/>
			<polygon class="st13" points="222.56,172.36 222.56,191.75 245.53,182.05 245.53,172.36 			"/>
		</g>
		<g>
			<polygon class="st13" points="202.82,220.01 216.53,206.3 225.93,229.4 219.07,236.25 			"/>
			<polygon class="st13" points="202.82,220.01 189.11,233.72 212.21,243.11 219.07,236.25 			"/>
		</g>
		<g>
			<polygon class="st13" points="155.17,239.74 174.56,239.74 164.87,262.72 155.17,262.72 			"/>
			<polygon class="st13" points="155.17,239.74 135.79,239.74 145.48,262.72 155.17,262.72 			"/>
		</g>
		<g>
			<polygon class="st13" points="107.53,220.01 121.24,233.72 98.14,243.11 91.28,236.25 			"/>
			<polygon class="st13" points="107.53,220.01 93.82,206.3 84.43,229.4 91.28,236.25 			"/>
		</g>
		<g>
			<polygon class="st13" points="87.79,172.36 87.79,191.75 64.81,182.06 64.82,172.36 			"/>
			<polygon class="st13" points="87.79,172.36 87.79,152.97 64.81,162.66 64.82,172.36 			"/>
		</g>
		<g>
			<polygon class="st13" points="107.53,124.71 93.82,138.42 84.42,115.32 91.28,108.47 			"/>
			<polygon class="st13" points="107.53,124.71 121.24,111 98.14,101.61 91.28,108.47 			"/>
		</g>
	</g>
	<g class="st1">
		<path class="st14" d="M245.88,288.6c6.75,18.6-2.85,39.15-21.45,45.91c-18.6,6.75-39.15-2.85-45.91-21.45
			c-6.75-18.6,2.85-39.15,21.45-45.91C218.58,260.4,239.13,270,245.88,288.6z"/>
		<path class="st15" d="M215.22,267.94c1.8,4.95-2.67,11.11-9.97,13.76c-7.3,2.65-14.68,0.79-16.47-4.16
			c-1.79-4.95,2.67-11.1,9.97-13.75C206.05,261.13,213.43,262.99,215.22,267.94z"/>
		<path class="st15" d="M181.85,287.79c5.26-0.18,9.74,5.97,10,13.73c0.26,7.76-3.78,14.2-9.04,14.38c-5.26,0.18-9.73-5.97-10-13.73
			C172.54,294.41,176.59,287.97,181.85,287.79z"/>
		<path class="st15" d="M190.42,325.67c1.46-5.06,8.69-7.42,16.15-5.27c7.46,2.15,12.34,7.99,10.88,13.04
			c-1.45,5.06-8.68,7.42-16.15,5.27C193.84,336.56,188.97,330.72,190.42,325.67z"/>
		<path class="st15" d="M229.09,329.22c-4.36-2.95-4.37-10.55-0.02-16.99c4.35-6.44,11.41-9.27,15.77-6.32
			c4.36,2.95,4.37,10.55,0.02,16.99C240.51,329.33,233.45,332.17,229.09,329.22z"/>
		<path class="st15" d="M244.42,293.54c-4.15,3.24-11.39,0.89-16.16-5.23c-4.78-6.13-5.29-13.71-1.14-16.95
			c4.15-3.24,11.39-0.89,16.16,5.23C248.06,282.71,248.57,290.3,244.42,293.54z"/>
		<path class="st16" d="M245.88,288.6c6.75,18.6-2.85,39.15-21.45,45.91c-18.6,6.75-39.15-2.85-45.91-21.45
			c-6.75-18.6,2.85-39.15,21.45-45.91C218.58,260.4,239.13,270,245.88,288.6z"/>
		<path class="st15" d="M218.09,298.69c1.18,3.25-0.5,6.85-3.75,8.03c-3.25,1.18-6.85-0.5-8.03-3.75c-1.18-3.25,0.5-6.85,3.75-8.03
			C213.32,293.76,216.91,295.44,218.09,298.69z"/>
		<g>
			<polygon class="st17" points="199.33,265.36 189.12,269.07 189.83,255.12 194.93,253.27 			"/>
			<polygon class="st17" points="199.33,265.36 209.53,261.66 200.04,251.41 194.93,253.27 			"/>
		</g>
		<g>
			<polygon class="st17" points="228.18,266.64 218.34,262.05 228.7,252.69 233.63,254.99 			"/>
			<polygon class="st17" points="228.18,266.64 238.01,271.24 238.54,257.29 233.63,254.99 			"/>
		</g>
		<g>
			<polygon class="st17" points="247.67,287.95 243.97,277.75 257.91,278.46 259.77,283.56 			"/>
			<polygon class="st17" points="247.67,287.95 251.38,298.16 261.62,288.66 259.77,283.56 			"/>
		</g>
		<g>
			<polygon class="st17" points="246.39,316.8 250.99,306.97 260.35,317.33 258.05,322.25 			"/>
			<polygon class="st17" points="246.39,316.8 241.79,326.64 255.75,327.17 258.05,322.25 			"/>
		</g>
		<g>
			<polygon class="st17" points="225.08,336.3 235.29,332.59 234.58,346.54 229.47,348.39 			"/>
			<polygon class="st17" points="225.08,336.3 214.88,340 224.37,350.25 229.47,348.39 			"/>
		</g>
		<g>
			<polygon class="st17" points="196.23,335.02 206.07,339.61 195.7,348.97 190.78,346.67 			"/>
			<polygon class="st17" points="196.23,335.02 186.39,330.42 185.86,344.38 190.78,346.67 			"/>
		</g>
		<g>
			<polygon class="st17" points="176.73,313.71 180.44,323.91 166.49,323.2 164.64,318.1 			"/>
			<polygon class="st17" points="176.73,313.71 173.03,303.5 162.79,313 164.64,318.1 			"/>
		</g>
		<g>
			<polygon class="st17" points="178.02,284.86 173.42,294.69 164.06,284.33 166.36,279.41 			"/>
			<polygon class="st17" points="178.02,284.86 182.61,275.02 168.66,274.49 166.36,279.41 			"/>
		</g>
	</g>
</g>
</svg>
