<?xml version="1.0" encoding="utf-8"?>
<!-- Generator: Adobe Illustrator 24.2.1, SVG Export Plug-In . SVG Version: 6.00 Build 0)  -->
<svg version="1.1" xmlns="http://www.w3.org/2000/svg" xmlns:xlink="http://www.w3.org/1999/xlink" x="0px" y="0px"
	 viewBox="0 0 297.64 420.94" style="enable-background:new 0 0 297.64 420.94;" xml:space="preserve">
<style type="text/css">
	.st0{fill:#F7EC32;stroke:#F7EC32;stroke-width:3;stroke-miterlimit:10;}
	.st1{fill:none;stroke:#000000;stroke-width:3;stroke-miterlimit:10;}
</style>
<g id="guides">
	
		<ellipse transform="matrix(0.7071 -0.7071 0.7071 0.7071 -102.9845 166.3343)" class="st0" cx="149.29" cy="207.48" rx="138.52" ry="138.52"/>
	<g>
		<path d="M45.18,171.31c-1.72-0.16-2.98-1.69-2.82-3.41c0.16-1.72,1.69-2.98,3.41-2.82c1.72,0.16,2.98,1.69,2.82,3.41
			C48.42,170.21,46.9,171.47,45.18,171.31z"/>
		<path d="M59.24,163.99c-1.72-0.16-2.98-1.69-2.82-3.41c0.16-1.72,1.69-2.98,3.41-2.82c1.72,0.16,2.98,1.69,2.82,3.41
			C62.48,162.89,60.96,164.15,59.24,163.99z"/>
		<path d="M74.2,177.98c-1.72-0.16-2.98-1.69-2.82-3.41c0.16-1.72,1.69-2.98,3.41-2.82s2.98,1.69,2.82,3.41
			C77.44,176.88,75.92,178.14,74.2,177.98z"/>
		<path d="M64.33,187.59c-1.72-0.16-2.98-1.69-2.82-3.41c0.16-1.72,1.69-2.98,3.41-2.82c1.72,0.16,2.98,1.69,2.82,3.41
			C67.58,186.49,66.05,187.75,64.33,187.59z"/>
		<path d="M51.83,196.81c-1.72-0.16-2.98-1.69-2.82-3.41c0.16-1.72,1.69-2.98,3.41-2.82c1.72,0.16,2.98,1.69,2.82,3.41
			C55.07,195.71,53.54,196.97,51.83,196.81z"/>
		<path d="M40.86,203.71c-1.72-0.16-2.98-1.69-2.82-3.41c0.16-1.72,1.69-2.98,3.41-2.82c1.72,0.16,2.98,1.69,2.82,3.41
			C44.11,202.61,42.58,203.87,40.86,203.71z"/>
		<path d="M63.18,204.49c-1.72-0.16-2.98-1.69-2.82-3.41c0.16-1.72,1.69-2.98,3.41-2.82c1.72,0.16,2.98,1.69,2.82,3.41
			S64.9,204.65,63.18,204.49z"/>
		<path d="M90.9,216.41c-1.72-0.16-2.98-1.69-2.82-3.41c0.16-1.72,1.69-2.98,3.41-2.82c1.72,0.16,2.98,1.69,2.82,3.41
			C94.14,215.31,92.61,216.57,90.9,216.41z"/>
		<path d="M85.68,238.5c-1.72-0.16-2.98-1.69-2.82-3.41c0.16-1.72,1.69-2.98,3.41-2.82c1.72,0.16,2.98,1.69,2.82,3.41
			C88.93,237.4,87.4,238.67,85.68,238.5z"/>
		<path d="M110.46,215.1c-1.72-0.16-2.98-1.69-2.82-3.41c0.16-1.72,1.69-2.98,3.41-2.82c1.72,0.16,2.98,1.69,2.82,3.41
			C113.7,214,112.18,215.26,110.46,215.1z"/>
		<path d="M111.95,244.74c-1.72-0.16-2.98-1.69-2.82-3.41c0.16-1.72,1.69-2.98,3.41-2.82c1.72,0.16,2.98,1.69,2.82,3.41
			C115.19,243.64,113.66,244.9,111.95,244.74z"/>
		<path d="M124.45,256.61c-1.72-0.16-2.98-1.69-2.82-3.41c0.16-1.72,1.69-2.98,3.41-2.82s2.98,1.69,2.82,3.41
			C127.7,255.5,126.17,256.77,124.45,256.61z"/>
		<path d="M119.36,239.67c-0.48-1.66,0.48-3.39,2.14-3.87s3.39,0.48,3.87,2.14c0.48,1.66-0.48,3.39-2.14,3.87
			C121.56,242.29,119.83,241.33,119.36,239.67z"/>
		<path d="M137.12,238.91c-1.72-0.16-2.98-1.69-2.82-3.41c0.16-1.72,1.69-2.98,3.41-2.82s2.98,1.69,2.82,3.41
			S138.84,239.07,137.12,238.91z"/>
		<path d="M148.65,250.19c-1.72-0.16-2.98-1.69-2.82-3.41c0.16-1.72,1.69-2.98,3.41-2.82s2.98,1.69,2.82,3.41
			S150.36,250.35,148.65,250.19z"/>
		<path d="M104.43,173.28c-1.72-0.16-2.98-1.69-2.82-3.41c0.16-1.72,1.69-2.98,3.41-2.82c1.72,0.16,2.98,1.69,2.82,3.41
			C107.68,172.17,106.15,173.44,104.43,173.28z"/>
		<path d="M69.55,149.68c-1.72-0.16-2.98-1.69-2.82-3.41s1.69-2.98,3.41-2.82c1.72,0.16,2.98,1.69,2.82,3.41
			C72.8,148.58,71.27,149.84,69.55,149.68z"/>
		<path d="M80.32,156.13c-1.72-0.16-2.98-1.69-2.82-3.41s1.69-2.98,3.41-2.82c1.72,0.16,2.98,1.69,2.82,3.41
			C83.57,155.02,82.04,156.29,80.32,156.13z"/>
		<path d="M96.63,137.24c-1.72-0.16-2.98-1.69-2.82-3.41c0.16-1.72,1.69-2.98,3.41-2.82c1.72,0.16,2.98,1.69,2.82,3.41
			C99.88,136.13,98.35,137.4,96.63,137.24z"/>
		<path d="M111.53,123.96c-1.72-0.16-2.98-1.69-2.82-3.41c0.16-1.72,1.69-2.98,3.41-2.82c1.72,0.16,2.98,1.69,2.82,3.41
			C114.77,122.85,113.25,124.12,111.53,123.96z"/>
		<path d="M104.76,144.39c-1.72-0.16-2.98-1.69-2.82-3.41c0.16-1.72,1.69-2.98,3.41-2.82c1.72,0.16,2.98,1.69,2.82,3.41
			C108,143.29,106.48,144.55,104.76,144.39z"/>
		<path d="M112.82,155.1c-1.72-0.16-2.98-1.69-2.82-3.41c0.16-1.72,1.69-2.98,3.41-2.82c1.72,0.16,2.98,1.69,2.82,3.41
			C116.06,153.99,114.54,155.26,112.82,155.1z"/>
		<path d="M134.16,135.3c-1.72-0.16-2.98-1.69-2.82-3.41s1.69-2.98,3.41-2.82c1.72,0.16,2.98,1.69,2.82,3.41
			C137.4,134.2,135.88,135.46,134.16,135.3z"/>
		<path d="M152.22,127.08c-1.72-0.16-2.98-1.69-2.82-3.41s1.69-2.98,3.41-2.82c1.72,0.16,2.98,1.69,2.82,3.41
			C155.47,125.98,153.94,127.24,152.22,127.08z"/>
		<path d="M174.66,133.32c-1.44,0.95-3.38,0.55-4.33-0.89c-0.95-1.44-0.55-3.38,0.89-4.33c1.44-0.95,3.38-0.55,4.33,0.89
			C176.5,130.43,176.1,132.37,174.66,133.32z"/>
		<path d="M186.51,156.13c-1.72-0.16-2.98-1.69-2.82-3.41c0.16-1.72,1.69-2.98,3.41-2.82c1.72,0.16,2.98,1.69,2.82,3.41
			C189.75,155.02,188.23,156.29,186.51,156.13z"/>
		<path d="M195.98,128.79c-1.72-0.16-2.98-1.69-2.82-3.41c0.16-1.72,1.69-2.98,3.41-2.82c1.72,0.16,2.98,1.69,2.82,3.41
			C199.23,127.69,197.7,128.95,195.98,128.79z"/>
		<path d="M202.17,144.65c-1.72-0.16-2.98-1.69-2.82-3.41c0.16-1.72,1.69-2.98,3.41-2.82c1.72,0.16,2.98,1.69,2.82,3.41
			C205.42,143.55,203.89,144.81,202.17,144.65z"/>
		<path d="M227,161.16c-1.72-0.16-2.98-1.69-2.82-3.41c0.16-1.72,1.69-2.98,3.41-2.82c1.72,0.16,2.98,1.69,2.82,3.41
			C230.24,160.05,228.71,161.32,227,161.16z"/>
		<path d="M213.33,186.3c-1.72-0.16-2.98-1.69-2.82-3.41c0.16-1.72,1.69-2.98,3.41-2.82c1.72,0.16,2.98,1.69,2.82,3.41
			S215.05,186.46,213.33,186.3z"/>
		<path d="M241.44,182.69c-1.72-0.16-2.98-1.69-2.82-3.41c0.16-1.72,1.69-2.98,3.41-2.82c1.72,0.16,2.98,1.69,2.82,3.41
			C244.68,181.59,243.16,182.85,241.44,182.69z"/>
		<path d="M251.34,183.62c-1.72-0.16-2.98-1.69-2.82-3.41s1.69-2.98,3.41-2.82c1.72,0.16,2.98,1.69,2.82,3.41
			C254.59,182.52,253.06,183.78,251.34,183.62z"/>
		<path d="M244.92,196.29c-1.72-0.16-2.98-1.69-2.82-3.41c0.16-1.72,1.69-2.98,3.41-2.82c1.72,0.16,2.98,1.69,2.82,3.41
			S246.64,196.45,244.92,196.29z"/>
		<path d="M245.38,213.68c-1.72-0.16-2.98-1.69-2.82-3.41c0.16-1.72,1.69-2.98,3.41-2.82c1.72,0.16,2.98,1.69,2.82,3.41
			C248.63,212.58,247.1,213.84,245.38,213.68z"/>
		<path d="M235.38,223.63c-1.72-0.16-2.98-1.69-2.82-3.41c0.16-1.72,1.69-2.98,3.41-2.82c1.72,0.16,2.98,1.69,2.82,3.41
			S237.1,223.79,235.38,223.63z"/>
		<path d="M245.38,233.3c-1.72-0.16-2.98-1.69-2.82-3.41c0.16-1.72,1.69-2.98,3.41-2.82c1.72,0.16,2.98,1.69,2.82,3.41
			C248.63,232.2,247.1,233.46,245.38,233.3z"/>
		<path d="M197.79,215.7c-1.72-0.16-2.98-1.69-2.82-3.41s1.69-2.98,3.41-2.82c1.72,0.16,2.98,1.69,2.82,3.41
			C201.03,214.6,199.51,215.86,197.79,215.7z"/>
		<path d="M214.1,218.47c-1.72-0.16-2.98-1.69-2.82-3.41s1.69-2.98,3.41-2.82s2.98,1.69,2.82,3.41
			C217.35,217.37,215.82,218.63,214.1,218.47z"/>
		<path d="M231.7,236.07c-1.72-0.16-2.98-1.69-2.82-3.41s1.69-2.98,3.41-2.82c1.72,0.16,2.98,1.69,2.82,3.41
			C234.95,234.97,233.42,236.23,231.7,236.07z"/>
		<path d="M205.54,229.56c-1.72-0.16-2.98-1.69-2.82-3.41c0.16-1.72,1.69-2.98,3.41-2.82c1.72,0.16,2.98,1.69,2.82,3.41
			C208.78,228.46,207.26,229.72,205.54,229.56z"/>
		<path d="M199.92,257.99c-1.72-0.16-2.98-1.69-2.82-3.41s1.69-2.98,3.41-2.82c1.72,0.16,2.98,1.69,2.82,3.41
			C203.16,256.89,201.64,258.15,199.92,257.99z"/>
		<path d="M222.93,251.87c-1.72-0.16-2.98-1.69-2.82-3.41c0.16-1.72,1.69-2.98,3.41-2.82c1.72,0.16,2.98,1.69,2.82,3.41
			C226.18,250.77,224.65,252.03,222.93,251.87z"/>
		<path d="M230.73,261.8c-1.72-0.16-2.98-1.69-2.82-3.41c0.16-1.72,1.69-2.98,3.41-2.82c1.72,0.16,2.98,1.69,2.82,3.41
			C233.98,260.69,232.45,261.96,230.73,261.8z"/>
		<path d="M204.49,277.27c-1.72-0.16-2.98-1.69-2.82-3.41c0.16-1.72,1.69-2.98,3.41-2.82c1.72,0.16,2.98,1.69,2.82,3.41
			C207.74,276.17,206.21,277.43,204.49,277.27z"/>
		<path d="M224.61,287.52c-1.72-0.16-2.98-1.69-2.82-3.41c0.16-1.72,1.69-2.98,3.41-2.82c1.72,0.16,2.98,1.69,2.82,3.41
			C227.85,286.42,226.33,287.68,224.61,287.52z"/>
		<path d="M172.5,227.62c1.22-1.22,3.2-1.22,4.42,0c1.22,1.22,1.22,3.2,0,4.42c-1.22,1.22-3.2,1.22-4.42,0
			C171.28,230.82,171.28,228.84,172.5,227.62z"/>
		<path d="M220.41,300.25c-1.72-0.16-2.98-1.69-2.82-3.41c0.16-1.72,1.69-2.98,3.41-2.82c1.72,0.16,2.98,1.69,2.82,3.41
			C223.65,299.15,222.13,300.42,220.41,300.25z"/>
		<polyline class="st1" points="45.47,168.19 45.47,156.59 55.57,146.57 69.85,146.57 		"/>
		<path d="M59.53,160.88"/>
		<polyline class="st1" points="74.49,174.87 49.12,174.87 41.16,181.86 41.16,200.59 		"/>
		<polyline class="st1" points="52.12,193.7 52.12,215.65 65.62,228.67 79.68,228.67 85.97,235.39 		"/>
		<polyline class="st1" points="91.19,213.29 75.55,213.29 63.47,201.38 		"/>
		<polyline class="st1" points="104.73,170.16 91.19,156.33 90.64,140.09 96.93,134.12 		"/>
		<polyline class="st1" points="80.61,153.01 80.61,133.51 92.7,120.84 111.82,120.84 		"/>
		<polyline class="st1" points="110.75,212.59 100.31,222.35 100.31,242.85 110.75,254.07 124.74,254.07 		"/>
		<polyline class="st1" points="122.36,238.8 143.38,259.75 161.56,259.75 174.71,247.08 174.71,230.19 		"/>
		<path d="M184.84,244.23c-1.72-0.16-2.98-1.69-2.82-3.41c0.16-1.72,1.69-2.98,3.41-2.82c1.72,0.16,2.98,1.69,2.82,3.41
			C188.09,243.13,186.56,244.39,184.84,244.23z"/>
		<polyline class="st1" points="185.13,241.11 185.76,260.91 198.91,273.63 204.79,274.16 		"/>
		<line class="st1" x1="214.39" y1="215.36" x2="231.99" y2="232.96"/>
		<polyline class="st1" points="245.68,230.91 245.68,239.16 236.82,248.75 223.23,248.75 		"/>
		<polyline class="st1" points="205.83,226.95 213.95,234.69 213.95,290.56 220.7,297.14 		"/>
		<polyline class="st1" points="224.9,284.41 231.03,278.79 231.03,258.68 		"/>
		<polyline class="st1" points="198.08,212.59 207.08,203.74 239.05,203.74 245.68,210.56 		"/>
		<polyline class="st1" points="235.67,220.52 251.64,220.85 258.74,213.71 258.74,187.32 251.26,180.51 		"/>
		<polyline class="st1" points="227.29,158.04 227.29,176.75 221.35,183.19 213.62,183.19 		"/>
		<polyline class="st1" points="241.73,179.58 241.73,154.66 212.75,125.68 196.28,125.68 		"/>
		<polyline class="st1" points="186.8,153.45 186.8,127.75 172.43,112.88 132.98,113.4 105.05,141.28 		"/>
		<polyline class="st1" points="202.47,141.54 207.72,147.05 207.72,169.36 198.82,178.9 166.84,179.58 166.07,137.51 
			172.94,130.71 		"/>
		<polyline class="st1" points="152.52,123.97 152.52,183.19 142.09,183.19 142.09,158.91 134.45,152.14 134.45,132.19 		"/>
		<polyline class="st1" points="113.11,151.98 134.45,172.58 134.45,183.19 96.93,183.93 73.88,160.88 59.53,160.88 		"/>
		<polyline class="st1" points="64.62,184.48 76.71,196.69 127.13,196.69 127.13,218.23 111.82,232.96 112.53,242.47 		"/>
		<polyline class="st1" points="245.21,193.18 198.08,192.57 187.6,202.58 144.8,202.58 144.8,229.83 137.41,235.8 		"/>
		<polyline class="st1" points="147.95,247.75 159.75,235.8 159.75,211.99 176.64,212.59 200.21,234.47 200.21,254.88 		"/>
	</g>
</g>
<g id="Layer_1">
</g>
</svg>
