<?xml version="1.0" encoding="utf-8"?>
<!-- Generator: Adobe Illustrator 24.2.1, SVG Export Plug-In . SVG Version: 6.00 Build 0)  -->
<svg version="1.1" id="Layer_1" xmlns="http://www.w3.org/2000/svg" xmlns:xlink="http://www.w3.org/1999/xlink" x="0px" y="0px"
	 viewBox="0 0 297.64 420.94" style="enable-background:new 0 0 297.64 420.94;" xml:space="preserve">
<style type="text/css">
	.st0{fill:#2460AD;stroke:#2460AD;stroke-width:9;stroke-miterlimit:10;}
	.st1{fill:none;stroke:#FFFFFF;stroke-width:5;stroke-linecap:round;stroke-linejoin:round;stroke-miterlimit:10;}
	.st2{fill:none;stroke:#FFFFFF;stroke-width:7;stroke-linecap:round;stroke-linejoin:round;stroke-miterlimit:10;}
	.st3{fill:#FFFFFF;stroke:#FFFFFF;stroke-miterlimit:10;}
	.st4{fill:none;stroke:#FFFFFF;stroke-width:4;stroke-miterlimit:10;}
	.st5{fill:none;stroke:#FFFFFF;stroke-width:4;stroke-linecap:round;stroke-linejoin:round;stroke-miterlimit:10;}
	.st6{fill:none;stroke:#FFFFFF;stroke-linecap:round;stroke-linejoin:round;stroke-miterlimit:10;}
</style>
<ellipse transform="matrix(0.7071 -0.7071 0.7071 0.7071 -101.3008 165.8282)" class="st0" cx="149.52" cy="205.19" rx="136.41" ry="136.41"/>
<line class="st1" x1="49.08" y1="228.23" x2="255.73" y2="228.23"/>
<g>
	<line class="st2" x1="100.62" y1="152.8" x2="100.62" y2="253.56"/>
	<rect x="94.91" y="239.91" class="st3" width="11.43" height="17.54"/>
</g>
<g>
	<line class="st2" x1="203.98" y1="152.8" x2="203.98" y2="253.56"/>
	<rect x="198.27" y="239.91" class="st3" width="11.43" height="17.54"/>
</g>
<path class="st4" d="M151.84,225.21c15.75,0,31.68-27.26,52.34-81.79"/>
<path class="st4" d="M100.62,143.41c19.91,54.53,35.47,81.79,51.22,81.79"/>
<path class="st4" d="M100.62,143.41c19.91,54.53,35.47,81.79,51.22,81.79"/>
<path class="st5" d="M100.29,143.41c-19.91,54.53-35.47,81.79-51.21,81.79"/>
<path class="st5" d="M204.51,143.41c19.91,54.53,35.47,81.79,51.21,81.79"/>
<g>
	<line class="st6" x1="61.72" y1="219.38" x2="61.72" y2="228.23"/>
	<line class="st6" x1="68.08" y1="212.24" x2="68.08" y2="228.23"/>
	<line class="st6" x1="74.43" y1="202.57" x2="74.43" y2="228.23"/>
	<line class="st6" x1="80.78" y1="192.07" x2="80.78" y2="228.23"/>
	<line class="st6" x1="87.14" y1="179.22" x2="87.14" y2="228.23"/>
	<line class="st6" x1="93.49" y1="163.24" x2="93.49" y2="228.23"/>
</g>
<g>
	<line class="st6" x1="139.52" y1="219.38" x2="139.52" y2="228.23"/>
	<line class="st6" x1="133.17" y1="212.24" x2="133.17" y2="228.23"/>
	<line class="st6" x1="126.82" y1="202.57" x2="126.82" y2="228.23"/>
	<line class="st6" x1="120.46" y1="192.07" x2="120.46" y2="228.23"/>
	<line class="st6" x1="114.11" y1="179.22" x2="114.11" y2="228.23"/>
	<line class="st6" x1="107.75" y1="163.24" x2="107.75" y2="228.23"/>
</g>
<g>
	<line class="st6" x1="164.27" y1="219.38" x2="164.27" y2="228.23"/>
	<line class="st6" x1="170.63" y1="212.24" x2="170.63" y2="228.23"/>
	<line class="st6" x1="176.98" y1="202.57" x2="176.98" y2="228.23"/>
	<line class="st6" x1="183.34" y1="192.07" x2="183.34" y2="228.23"/>
	<line class="st6" x1="189.69" y1="179.22" x2="189.69" y2="228.23"/>
	<line class="st6" x1="196.04" y1="163.24" x2="196.04" y2="228.23"/>
</g>
<g>
	<line class="st6" x1="244.09" y1="219.38" x2="244.09" y2="228.23"/>
	<line class="st6" x1="237.74" y1="212.24" x2="237.74" y2="228.23"/>
	<line class="st6" x1="231.38" y1="202.57" x2="231.38" y2="228.23"/>
	<line class="st6" x1="225.03" y1="192.07" x2="225.03" y2="228.23"/>
	<line class="st6" x1="218.68" y1="179.22" x2="218.68" y2="228.23"/>
	<line class="st6" x1="212.32" y1="163.24" x2="212.32" y2="228.23"/>
</g>
</svg>
