<?xml version="1.0" encoding="utf-8"?>
<!-- Generator: Adobe Illustrator 24.2.1, SVG Export Plug-In . SVG Version: 6.00 Build 0)  -->
<svg version="1.1" id="Layer_2" xmlns="http://www.w3.org/2000/svg" xmlns:xlink="http://www.w3.org/1999/xlink" x="0px" y="0px"
	 viewBox="0 0 420.94 297.64" style="enable-background:new 0 0 420.94 297.64;" xml:space="preserve">
<style type="text/css">
	.st0{fill:#009447;stroke:#009447;stroke-width:9;stroke-miterlimit:10;}
	.st1{fill:none;stroke:#000000;stroke-width:5;stroke-miterlimit:10;}
	.st2{fill:none;}
	.st3{fill:none;stroke:#000000;stroke-width:3;stroke-miterlimit:10;}
	.st4{stroke:#000000;stroke-width:3;stroke-miterlimit:10;}
</style>
<circle class="st0" cx="207.01" cy="148.82" r="140.82"/>
<g id="Layer_1">
</g>
<path class="st1" d="M100.01,222.58"/>
<path class="st1" d="M131.06,283.96"/>
<path class="st1" d="M131.06,283.96"/>
<path class="st2" d="M131.06,249.25"/>
<path class="st2" d="M131.06,249.25"/>
<path class="st2" d="M131.06,249.25"/>
<path class="st2" d="M131.06,249.25"/>
<path class="st2" d="M259.05,222.58"/>
<path class="st1" d="M228.01,283.96"/>
<path class="st2" d="M259.05,222.58"/>
<path class="st1" d="M228.01,283.96"/>
<path class="st2" d="M228.01,249.25"/>
<path class="st2" d="M228.01,249.25"/>
<path class="st2" d="M228.01,249.25"/>
<path class="st2" d="M228.01,249.25"/>
<path class="st2" d="M131.06,215.41"/>
<path class="st2" d="M131.06,214.55"/>
<path class="st2" d="M228.01,215.41"/>
<path class="st2" d="M228.01,214.55"/>
<path class="st2" d="M140.07,190.81c-0.38-0.18-0.62-0.25-0.67-0.19c-0.09,0.14,0.86,1.03,0.96,0.95
	C140.41,191.53,140.32,191.23,140.07,190.81z M123.18,186.2c-0.28,0.89,0.02,1.85,0.08,1.84
	C123.33,188.03,123.32,187.22,123.18,186.2z"/>
<path class="st2" d="M322.55,135.91c-0.2-0.07-0.42-0.16-0.65-0.29c-1.35-0.8-1.46-1.97-2.44-3.35c-0.69-0.96-0.78-0.6-3.35-2.81
	c-2.09-1.8-2.82-2.71-3.08-2.53c-0.23,0.15,0.15,0.92,1.09,3.35c1.42,3.68,1.51,4.39,2.34,4.79c1.41,0.68,2.65-0.61,3.45,0.1
	c0.67,0.6-0.07,1.72-0.18,4.6c-0.08,2.14,0.3,2.15,0.18,4.52c-0.1,1.92-0.43,3.3-0.55,3.81c-0.35,1.44-0.8,2.54-1.09,3.16
	c-0.15,0.36-0.17,0.38-1.89,3.35c-0.68,1.18-1.03,1.79-1.72,2.54c-0.42,0.45-1.38,1.5-1.9,1.26c-0.32-0.15-0.2-0.66-0.45-1.44
	c-0.33-1.04-0.95-1.44-1.45-2.08c-0.79-1-0.51-1.54-1.18-4.99c-0.39-2.01-0.59-3.02-0.99-3.97c-0.81-1.92-1.4-1.87-2.36-3.9
	c-0.72-1.53-0.43-1.63-1.35-4.25c-1.35-3.8-2.22-4.27-2.63-4.43c-0.9-0.36-2.12-0.22-2.44,0.36c-0.32,0.58,0.44,1.24,1.45,3.26
	c0.95,1.89,0.6,1.94,1.54,3.79c1.02,2.04,1.43,1.98,2.08,3.63c0.58,1.46,0.28,1.57,0.9,3.25c0.75,2.01,1.17,1.88,1.72,3.53
	c0.75,2.28,0.09,3.03,0.99,3.89c0.59,0.56,1.24,0.6,2.18,1.64c0.37,0.4,0.57,0.73,0.67,0.93c0.12,0.22,0.47,0.9,0.5,1.78
	c0.05,1.23-0.57,1.7-0.27,2.16c0.37,0.57,1.56,0.38,1.63,0.37c2.01-0.33,2.78-2.67,3.43-2.44c0.54,0.18,0.42,1.83,0.37,2.54
	c-0.13,1.81-0.54,2.94-1.09,4.7c-1.15,3.74-0.81,3.63-1.54,5.24c-0.4,0.92-0.39,0.69-2.16,3.8c-1.73,3.04-1.69,3.18-2.45,4.26
	c-1.25,1.78-1.48,1.59-2.71,3.34c-0.31,0.45-0.49,0.73-2.44,4.34c-1.58,2.9-1.78,3.3-2.08,3.99c-0.82,1.82-1.22,2.74-1.37,3.71
	c-0.34,2.46,0.75,3.05,0.19,5.24c-0.04,0.19-0.46,1.07-1.26,2.81c-1.14,2.45-1.34,2.73-1.54,2.98c-0.9,1.12-1.28,0.87-2.81,2.27
	c-1.51,1.37-1.24,1.73-2.63,2.89c-1.47,1.25-1.96,1.01-2.88,2.08c-0.7,0.81-0.52,1.06-1.46,2.99c-1.09,2.24-1.63,3.38-2.8,4.07
	c-1.3,0.77-1.89,0.16-2.81,0.99c-1.1,1-0.49,2.07-1.62,3.26c-0.87,0.9-1.37,0.47-2.63,1.54c-0.79,0.67-0.67,0.91-1.81,2.26
	c-0.76,0.91-1.39,1.48-2.44,2.45c-1.38,1.26-2.08,1.9-2.71,2.26c-0.79,0.44-1.93,0.68-4.17,1.17c-3.16,0.69-2.84,0.43-4.07,0.82
	c-1.74,0.55-2.5,1.12-3.08,0.72c-0.5-0.36-0.65-1.3-0.35-1.99c0.48-1.16,1.93-0.89,2.34-1.91c0.36-0.82-0.49-1.27-0.9-3.25
	c-0.34-1.68-0.08-3.1,0-3.53c0.35-1.79,0.95-1.83,1-3.16c0.03-0.97-0.27-0.99-0.82-3.25c-0.09-0.43-0.25-1.38-0.54-3.27
	c-0.21-1.28-0.3-2.03,0.09-2.81c0.19-0.36,0.32-0.4,0.68-0.85c1.1-1.38,0.75-2.15,1.63-3.53c0.63-0.98,0.83-0.61,1.89-2.03
	c1.1-1.46,1.21-2.24,1.23-2.45c0.09-0.84-0.24-1.07-0.41-2.04c-0.18-1.09,0.08-1.7,0.34-2.35c0.22-0.55,0.42-1.11,0.33-1.98
	c-0.13-1.5-0.98-2.66-1.62-3.54c-0.72-0.97-1.52-1.67-1.63-1.76c-0.82-0.7-0.92-0.56-1.22-0.95c-0.24-0.31-0.33-0.63-0.34-1.39
	c-0.03-0.53,0.01-1.29,0.07-2.41c0.07-1.31,0.12-1.97,0.14-2.17c0.27-2.28,0.76-2.79,0.4-3.6c-0.36-0.86-1.32-1.2-2.1-1.49
	c-1.98-0.73-2.73,0.19-4.28-0.54c-1.15-0.56-0.97-1.17-2.37-1.84c-1.21-0.56-2.29-0.54-2.52-0.54c-1.36,0.05-2.19,0.65-3.38,1.29
	c0,0-1.69,0.91-4.75,1.83c-1.99,0.61-1.99,0.22-7.74,0.82c-1.02,0.11-1.79,0.2-2.39,0.26c-1.43,0.17-1.99,0.18-2.9-0.06
	c-2.07-0.55-3.8-1.89-4.07-2.1c-1.22-0.96-1.14-1.29-2.38-2.11c-1.39-0.91-1.96-0.78-2.99-1.69c-0.73-0.66-0.48-0.76-1.62-2.17
	c-1.1-1.36-1.39-1.36-2.92-3.13c-1.07-1.23-0.94-1.25-1.4-1.63c-1.47-1.17-2.4-0.69-3.17-1.62c-0.79-0.97-0.69-2.59-0.27-3.62
	c0.53-1.3,1.44-1.4,1.63-2.62c0.01-0.06,0.01-0.12,0.01-0.16c0.06-0.74-0.32-0.89-0.38-2.02c-0.08-1.77,0.85-2.06,0.64-3.35
	c-0.22-1.41-1.38-1.41-1.63-2.98c-0.01-0.09-0.22-1.53,0.64-2.63c0.59-0.75,1.08-0.54,1.8-1.17c1.36-1.17,0.58-2.7,1.81-4.89
	c0.71-1.24,0.98-0.78,2.08-2.34c1.7-2.42,1.25-3.8,2.54-4.44c1.19-0.6,1.93,0.43,3.25-0.27c1.37-0.71,1.87-2.45,1.99-2.89
	c0.39-1.37-0.06-1.75,0.37-2.72c0.53-1.21,1.42-1.08,2.71-2.26c2.15-1.96,1.54-3.97,3.35-4.8c0.57-0.26,1.25-0.2,2.63-0.09
	c3.23,0.26,4.01,1.25,5.61,0.81c1.2-0.33,0.91-0.93,2.61-1.98c1.43-0.88,2.12-0.75,6.06-1.72c3.07-0.76,2.67-0.83,4.17-1.09
	c0.56-0.09,1.02-0.15,5.61-0.36c2.86-0.14,3.18-0.14,3.53,0.18c1.2,1.12-0.37,3.38,0.99,5.15c0.4,0.52,1.17,0.84,2.71,1.46
	c3.01,1.19,3.41,0.74,5.16,1.62c0.42,0.21,0.76,0.41,1.04,0.61c1.3,0.92,1.51,1.71,3.13,2.11c0.21,0.05,0.44,0.1,0.69,0.12
	c1.17,0.15,2.54,0.02,3.01-0.76c0.5-0.8-0.24-1.89,0.37-2.44c0.35-0.32,0.88-0.23,1.27-0.19c1.43,0.19,2.9-0.11,4.33,0
	c0.21,0.03,0.58,0.05,1.05,0.09c0.9,0.06,2.18,0.13,3.59,0.13c0.56,0.01,1.13,0,1.69-0.03c2.88-0.1,4.26-0.49,5.16-0.81
	c1.45-0.52,2.55-0.94,3.08-1.99c0.4-0.82,0.16-1.92-0.36-4.07c-0.55-2.3-0.85-3.46-1.53-3.8c-0.97-0.49-1.66,0.48-4.17,1.09
	c-1.11,0.26-2.8,0.66-4.46,0.24c-0.39-0.09-0.77-0.23-1.15-0.43c-0.16-0.09-0.77-0.41-1.35-0.99c-0.24-0.22-0.46-0.49-0.65-0.82
	l-0.01-0.02c-0.19-0.3-0.34-0.66-0.43-1.06c-0.15-0.69-0.08-1.35,0.12-1.94c0.31-0.96,0.91-1.77,1.33-2.32
	c0.29-0.39,0.59-0.71,0.9-1c0.56-0.52,1.16-0.92,1.81-1.35c1.03-0.68,2.28-1.51,3.89-1.9c3.34-0.8,5.83,0.92,6.24,0.19
	c0.28-0.51-0.66-1.57-1.62-2.63c-1.32-1.46-1.93-1.65-2.9-2.63c-2.18-2.18-2.62-4.72-2.99-4.61c-0.41,0.13,0.76,3.1-0.54,4.26
	c-0.72,0.64-1.91,0.42-2.26,0.35c-2.39-0.44-3.16-2.87-3.89-2.61c-0.1,0.03-0.18,0.1-0.25,0.21c-0.67,0.89-0.81,4.25,0.43,7.24
	c0.54,1.3,1.24,2.3,0.77,3.18c-0.39,0.72-1.5,1.2-2.4,1.3c-0.64,0.08-0.95-0.07-1.37,0.04c-0.08,0.02-0.17,0.05-0.26,0.1
	c-0.52,0.26-0.96,0.78-1.08,1.36c-0.14,0.63,0.13,1.12,0.27,1.49c0.18,0.44,0.27,0.93,0.29,1.42v0.01c0.1,1.53-0.41,3.08-1.1,3.32
	c-0.54,0.19-1.35-0.61-2.99-2.17c-1.41-1.35-2.1-2.01-2.58-2.85c-1.15-2-0.48-2.94-1.63-4.07c-0.59-0.59-0.79-0.37-2.85-1.36
	c-1.38-0.67-2.43-1.18-3.53-2.04c-0.24-0.19-0.45-0.38-0.64-0.54c-1.34-1.25-1.6-2.13-2.62-2.17c-0.91-0.05-1.93,0.63-2.03,1.36
	c-0.09,0.6,0.47,1.17,1.76,2.17c0.32,0.25,0.64,0.48,0.96,0.7c2,1.44,3.8,2.45,4.75,2.97c1.9,1.05,4.22,2.32,4.07,2.71
	c-0.1,0.22-0.88-0.07-1.36,0.4c-0.38,0.38-0.29,0.96-0.27,1.63c0,0.22,0.01,2.17-0.7,3.22v0.01c-0.04,0.06-0.07,0.11-0.12,0.16
	c-0.59,0.72-1.73,1-2.71,0.97c-0.87-0.04-1.61-0.3-1.77-0.7c-0.14-0.35,0.25-0.64,0.77-1.48c0-0.01,0-0.01,0-0.01
	c0.15-0.23,0.3-0.49,0.45-0.82c0.33-0.67,0.69-1.44,0.78-2.15c0.08-0.39,0.05-0.76-0.09-1.1c-0.36-0.81-1.11-0.72-3.67-1.9
	c-1.46-0.67-2.38-1.09-3.4-1.9c-0.42-0.33-0.7-0.61-0.92-0.85c-0.47-0.54-0.71-0.97-1.65-1.73c-1.25-1.01-2.39-1.92-3.39-1.62
	c-1.39,0.41-0.96,2.66-2.58,3.38c-0.03,0.01-0.04,0.01-0.06,0.02c-0.81,0.35-1.45,0-2.22-0.08h-0.09c-0.23-0.03-0.47-0.02-0.75,0.03
	c0,0-0.01,0.01-0.02,0.01c-0.17,0.02-0.33,0.08-0.52,0.16c-0.57,0.25-1.02,0.76-1.91,1.77c-1.49,1.69-1.29,2.08-2.3,2.85
	c-0.95,0.71-1.41,0.58-2.04,1.35c-0.43,0.53-0.53,0.99-0.82,1.9c-0.6,1.96-0.9,2.93-1.22,3.4c-1.25,1.82-4.08,1.98-5.02,2.04
	c-1.51,0.07-1.26-0.32-3.8-0.42c-1.87-0.07-2.61,0.13-4.07-0.27c-0.9-0.24-1.89-0.52-2.31-1.35c-0.14-0.28-0.16-0.53,0-2.18
	c0.24-2.39,0.35-2.47,0.28-3.12c-0.1-0.81-0.26-0.72-0.68-2.44c-0.31-1.23-0.45-1.86-0.27-2.31c0.07-0.2,0.43-0.98,2.44-1.49
	c2.16-0.54,3.35-0.05,6.92,0.13c1.06,0.06,1.84,0.06,2.41,0.02h0.01c1.21-0.07,1.5-0.31,1.65-0.55c0.27-0.42,0-0.63-0.54-3.53
	c-0.25-1.32-0.31-1.87-0.82-2.31c-0.43-0.38-0.93-0.45-1.76-0.54c-1.78-0.21-2.33,0.31-2.98-0.14c-0.69-0.48-0.96-1.66-0.55-2.31
	c0.37-0.58,1.12-0.42,2.32-0.65h0.01c0.04-0.01,0.08-0.01,0.11-0.03c1.21-0.25,2.31-0.99,4.46-2.47c0.05-0.04,0.11-0.07,0.16-0.11
	c1.02-0.68,0.8-0.61,2.9-2.15c0.07-0.04,0.14-0.1,0.22-0.16c0.55-0.39,0.83-0.59,1.22-0.94c0.61-0.55,0.89-0.94,1.91-2.31
	c1.45-1.97,1.61-2.15,1.89-2.71c0.5-0.98,0.76-1.49,0.68-2.18c-0.11-0.99-0.81-1.15-0.95-2.17c-0.13-0.95,0.31-2.14,0.95-2.3
	c0.88-0.22,2.01,1.5,2.45,2.17c1.32,2.04,1.03,3.19,2.03,3.66c0.1,0.05,0.18,0.08,0.26,0.1H253c0.62,0.13,1.08-0.43,2.99-0.64
	c2.2-0.24,3.06,0.35,4.2-0.4c0.76-0.5,0.54-0.86,1.22-1.22c1.44-0.77,2.89,0.54,3.86,0.11c0.07-0.02,0.14-0.07,0.21-0.11
	c0.65-0.51,0.6-1.74,0.41-2.45c-0.35-1.27-1.38-1.46-1.36-2.44c0.02-0.67,0.5-0.68,0.82-1.77c0.34-1.14-0.09-1.45,0.27-2.03
	c0.55-0.87,1.62-0.4,2.58-1.36c0.67-0.68,0.99-1.76,0.68-2.04c-0.42-0.38-1.53,1.15-3.53,1.22c-1.2,0.06-2.2-0.44-4.07-1.35
	c-1.11-0.54-1.67-0.82-1.9-1.09c-0.49-0.57-0.82-1.41-0.95-6.38c-0.03-1.11-0.03-1.69-0.41-1.89c-0.65-0.35-2.16,0.6-2.17,1.49
	c0,0.92,1.63,1.56,1.36,2.44c-0.02,0.04-0.03,0.07-0.05,0.1c-0.38,0.82-1.42,0.64-1.99,1.12c-0.73,0.62-0.63,2.32,0,3.39
	c0.65,1.12,1.41,0.82,2.44,2.04c1.06,1.23,1.27,2.69,1.36,3.4c0.2,1.39-0.06,2.41-0.4,3.8c-0.17,0.64-0.3,1.17-0.44,1.63
	c-0.33,1.09-0.66,1.72-1.33,2.02c-1.11,0.51-2.77,0.02-3.25-0.94c-0.51-1,0.59-1.78,0.13-3.13c-0.07-0.2-0.15-0.35-0.26-0.47
	c0,0,0-0.01-0.01-0.03c-0.32-0.39-0.82-0.55-1.64-1.53c-1.24-1.52-1.1-2.35-2.02-2.71c-0.71-0.28-1.74-0.16-2.18,0.4
	c-0.67,0.86,0.44,2.2-0.27,2.99c-0.37,0.42-1.01,0.4-1.62,0.4c-0.29,0-1.73-0.01-2.58-0.94c-1.03-1.13-0.03-2.25-0.96-4.07
	c-0.75-1.47-1.95-1.84-1.77-2.45c0.23-0.71,1.86-0.25,2.73-1.35c0.53-0.7,0.19-1.27,0.54-2.45c0.44-1.51,1.34-1.76,2.04-2.84
	c1.56-2.49-0.99-4.54,0.26-7.88c0.09-0.23,1.02-2.58,3.26-3.52c1.44-0.62,2.74-0.37,5.15,0.13c3.08,0.62,3.05,1.25,5.71,1.76
	c1.67,0.32,2.72,0.27,3.55,0.32c0.73,0.04,1.3,0.14,2.01,0.63c1.54,1.07,2.39,3.1,1.9,3.67c-0.1,0.1-0.25,0.16-0.44,0.17
	c-1.1,0.1-3.52-1.27-3.64-1.04c-0.07,0.16,0.88,0.71,1.95,1.48c2.92,2.12,3.56,3.49,4.21,3.23c0.01,0,0.02-0.01,0.04-0.02
	c0.85-0.43,0.59-3.33,0.33-4.77c-0.3-1.63-0.73-2.06-0.82-3.44c-0.09-1.38,0.2-2.55,0.51-3.4l0.13-0.31l0.58-1.37
	c-3.59-2.37-11.73-7.28-23.21-11.48c-3.42-1.26-7.14-2.46-11.12-3.48c-8.56-2.25-18.35-3.8-29.03-3.8
	c-11.58,0-22.75,1.69-33.31,4.84h-0.02c-11.04,3.3-21.4,8.19-30.8,14.41v0.02l-0.61,3l-0.01,0.04c-0.06,0.16-0.12,0.34-0.2,0.52
	c-0.13,0.31-0.29,0.63-0.49,0.95c-0.01,0.02-0.02,0.04-0.05,0.07c-0.21,0.33-0.46,0.66-0.75,0.98c-0.23,0.25-1.02,1.05-3.93,2.31
	c-3.29,1.42-4.77,1.48-4.89,2.31c-0.12,0.84,1.25,1.69,2.03,2.17c0.73,0.44,1.93,1.19,3.13,0.81c0.54-0.18,0.8-0.51,1.62-1.49
	c2.52-3.04,1.82-2.05,2.85-3.39c0.2-0.27,0.39-0.52,0.57-0.74c1.02-1.34,1.56-2.09,1.87-2.66c1.13-2.09,0.78-2.71,1.77-3.66
	c0.91-0.88,2.54-1.65,3.79-1.08c1.02,0.45,1.44,1.6,1.64,2.16c0.6,1.7,0.08,2.93,0.54,3.13c0.39,0.16,0.87-0.7,2.17-1.63
	c0.11-0.09,0.22-0.16,0.34-0.23c0.11-0.07,0.23-0.14,0.35-0.21v-0.01c0.01-0.01,0.03-0.02,0.04-0.02c0.03-0.02,0.06-0.03,0.09-0.06
	c0.42-0.23,0.85-0.44,1.24-0.59c0.12-0.04,0.25-0.08,0.37-0.12c0.46-0.14,0.82-0.15,0.97,0.02c0.43,0.51-1.47,2.51-0.95,3.12
	c0.38,0.44,1.55-0.46,2.44,0.13c0.47,0.32,0.33,0.7,0.94,1.91c0.66,1.24,0.94,1.1,1.22,1.89c0.1,0.24,0.22,0.65,0,3.13
	c-0.15,1.93-0.26,1.98-0.13,2.43c0.23,0.79,0.62,0.89,1.9,2.46c1.07,1.27,1.6,1.94,1.5,2.43c-0.13,0.6-0.71,0.51-2.72,1.91
	c-0.89,0.61-1.22,0.93-1.62,0.8c-0.44-0.13-0.64-0.71-0.96-1.62c-0.42-1.22-0.29-1.6-0.68-1.9c-0.49-0.38-1.36-0.28-1.89,0.14
	c-0.82,0.6-0.71,1.77-0.69,2.16c0.09,0.94,0.48,1.02,0.82,2.18c0.12,0.41,0.75,2.46-0.13,3.12c-0.39,0.29-1.07,0.29-1.5,0
	c-0.8-0.55-0.3-1.82-0.95-2.17c-0.59-0.33-1.84,0.3-1.9,0.95c-0.08,0.8,1.67,1.17,1.63,2.03c-0.04,0.72-1.31,1.49-2.17,1.22
	c-0.15-0.05-0.45-0.18-1.36-1.89c-0.63-1.2-0.63-1.41-1.08-2.18c-0.63-1.05-0.94-1.57-1.5-1.89c-1.36-0.81-2.93,0.15-3.26-0.42
	c-0.21-0.35,0.2-1.16,0.82-1.62c1.47-1.12,3.36,0.27,4.47-0.82c0.54-0.51,0.23-0.93,0.96-1.63c0.64-0.62,1.07-0.46,1.77-1.08
	c0.74-0.67,1-1.51,1.07-1.76c0.23-0.77,0-0.9,0-2.72c0-1.35,0.13-1.6-0.13-1.9c-0.09-0.1-0.28-0.26-1.46-0.28
	c-0.24,0-0.51,0-0.84,0.01c-1.19,0.02-1.83,0.05-2.25,0.25c-0.03,0-0.04,0.01-0.06,0.02c-0.69,0.36-1.06,0.94-1.49,1.62
	c-0.51,0.81-0.39,0.96-0.95,1.91c-0.3,0.5-0.65,1.09-1.22,1.63c-0.76,0.7-1.54,1-2.18,1.22c-0.35,0.12-1.71,0.59-3.8,0.55
	c-2-0.05-2.78-0.52-3.25,0c-0.46,0.49-0.36,1.6,0.13,1.89c0.64,0.39,1.45-0.82,2.58-0.54c0.83,0.21,1.54,1.14,1.49,2.03
	c-0.06,1.25-1.6,1.92-2.57,2.04c-0.22,0.03-1.41,0.18-2.18-0.55c-0.67-0.62-0.53-1.43-1.09-1.62c-0.4-0.14-0.84,0.18-1.35,0.55
	c-0.94,0.67-1.9,1.33-2.85,2.03c-1.99,1.46-2.67,0.71-4.47,2.17c-0.12,0.09-0.23,0.18-0.32,0.27c-0.14,0.12-0.26,0.25-0.38,0.37
	s-0.24,0.23-0.33,0.35c-0.46,0.52-0.75,0.97-0.88,1.18c-0.53,0.89-0.33,0.98-1.22,3.53c-0.31,0.9-0.54,1.48-0.63,1.9
	c-0.01,0.06-0.02,0.1-0.03,0.15c-0.01,0.1-0.01,0.18-0.01,0.26c0,0.07,0.01,0.14,0.03,0.2c0.03,0.07,0.05,0.15,0.1,0.21
	c0.31,0.49,0.8,0.27,1.49,0.81c0.16,0.13,0.3,0.26,0.39,0.4c0.06,0.09,0.11,0.18,0.15,0.28c0.03,0.04,0.04,0.09,0.06,0.14
	c0.04,0.09,0.07,0.19,0.1,0.29c0.03,0.12,0.07,0.24,0.12,0.37c0.03,0.13,0.09,0.29,0.16,0.44c0.03,0.07,0.07,0.15,0.12,0.24
	c0.07,0.13,0.15,0.27,0.26,0.41c0.77,1.08,1.31,0.81,2.31,2.04c0.5,0.64,0.98,1.23,1.08,2.03c0.01,0.1,0.02,0.18,0.02,0.27
	c0.02,1.61-1.62,2.35-1.37,3.95c0.15,1.05,1.06,2,1.62,1.89c0.42-0.07,0.48-0.73,1.49-3.11c0.53-1.27,0.69-1.47,0.82-1.64
	c0.53-0.62,1-0.77,2.45-1.49c1.56-0.79,2.34-1.18,2.71-1.63c0.79-0.96,0.88-2.16,0.94-2.84c0.16-1.91-0.6-2.41-0.13-3.4
	c0.47-0.97,1.25-0.66,2.17-1.91c0.4-0.52,0.63-1.2,1.09-2.56c0.56-1.65,0.5-2.03,0.95-2.31c0.48-0.32,0.79-0.04,2.45,0
	c1.72,0.03,1.83-0.26,2.43,0c0.27,0.1,0.51,0.28,1.9,2.58c0.92,1.51,1.04,1.81,0.96,2.16c-0.2,0.83-1.14,0.81-1.36,1.64
	c-0.24,0.87,0.49,2.15,1.49,2.44c0.89,0.26,1.73-0.35,2.58-0.95c1.61-1.15,1.94-2.3,2.58-2.18c0.51,0.1,0.76,0.91,1.08,2.04
	c0.33,1.12,0.47,2.13,0.54,3.25c0.2,2.7-0.12,3.4,0.54,4.35c0.45,0.64,0.62,0.35,1.37,1.22c1.05,1.23,0.86,1.94,1.89,2.99
	c0.76,0.76,0.99,0.52,1.36,1.08c0.64,0.98,0.05,1.93-0.13,3.94c-0.15,1.6-0.31,3.23,0.53,4.62c0.86,1.38,1.93,1.24,2.45,2.71
	c0.35,0.98,0.3,2.26-0.27,2.58c-0.16,0.09-0.38,0.1-1.9-0.55c-1.54-0.65-1.68-0.81-2.31-0.94c-0.83-0.18-0.93,0.04-2.17,0
	c-1.19-0.05-2.69-0.11-2.98-0.82c-0.19-0.45,0.27-1.16,1.22-2.58c0.35-0.53,0.63-0.95,1.09-1.49c1.51-1.81,2.7-2.23,2.58-2.58
	c-0.18-0.48-2.48-0.29-4.49,0.41c-1.31,0.45-1.28,0.69-2.31,0.95c-1.42,0.35-2.61,0.15-4.34-0.14c-2.48-0.43-2.71-0.88-3.93-0.68
	c-0.52,0.08-0.46,0.17-2.85,1.36c-2.3,1.14-2.9,1.34-3.13,2.04c-0.21,0.7,0.01,1.64,0.55,1.89c0.75,0.36,2.02-0.72,3.39-1.89
	c0.81-0.69,2.2-2,3.41-2.08c0.07-0.02,0.23-0.02,0.39,0.04c0.69,0.24,1.17,1.35,0.95,2.17c-0.27,1-1.4,0.86-1.76,1.9
	c-0.36,1.02,0.41,2.12,0.54,2.31c0.56,0.8,1.33,1.12,1.63,1.22c0,0,1.14-0.14,2.04-0.54c1.14-0.51,1.17-1.12,1.76-1.09
	c0.74,0.03,1.53,1.02,1.49,1.9c-0.05,1.19-1.6,1.86-2.3,2.17c-0.5,0.21-1.07,0.33-2.18,0.54c-2.25,0.44-2.33,0.24-2.98,0.55
	c-1.61,0.76-1.93,2.33-2.44,2.17c-0.42-0.13-0.59-1.28-0.27-2.17c0.35-0.99,1.21-1.36,1.08-1.63c-0.13-0.26-1.05-0.13-1.76,0.14
	c-0.86,0.32-0.91,0.66-1.78,1.08c-0.58,0.28-0.73,0.21-2.16,0.54c-1.39,0.33-2.07,0.48-2.31,0.69c-1.29,1.04-0.08,3.29-1.09,4.07
	c-1.24,0.94-4.17-1.71-5.15-0.82c-0.77,0.7,0.69,2.65-0.27,3.8c-0.64,0.75-1.56,0.24-3.12,1.08c-0.41,0.22-1.48,0.8-2.04,1.9
	c-0.95,1.86,0.57,3.24-0.4,5.57c-0.36,0.84-0.81,1.28-1.09,1.49c-0.59,0.46-1.14,0.54-1.64,0.67c-2.08,0.6-3.43,2.18-3.65,2.45
	c-0.32,0.37-1.2,1.5-1.49,3.13c-0.16,0.83-0.06,1.24,0.27,3.66c0.53,3.9,0.52,4.47,0.27,5.16c-0.56,1.48-1.93,2.7-2.58,2.44
	c-0.26-0.1-0.43-0.44-0.55-3.26c-0.14-3.48,0.09-3.99-0.4-5.02c-0.4-0.82-1.07-1.41-2.45-2.58c-1.36-1.17-2.05-1.76-2.71-1.63
	c-1.35,0.26-1.45,2.8-2.58,2.85c-0.8,0.04-1.02-1.27-2.31-1.49c-0.89-0.16-1.65,0.32-2.03,0.54c-1.12,0.69-1.58,1.76-2.04,2.86
	c0,0.01,0,0.01-0.01,0.02c-0.16,0.38-0.57,1.47-0.81,3.23c-0.02,0.24-0.06,0.49-0.08,0.72v0.02c0,0.04-0.01,0.08-0.02,0.12
	c0,0.06-0.01,0.13-0.02,0.19c-0.01,0.1-0.02,0.21-0.03,0.31c-0.11,1.16-0.13,2.35,0.19,3.58c0.06,0.25,0.14,0.51,0.24,0.75
	c0.65,1.74,1.32,1.71,1.76,3.53c0.32,1.3,0.07,1.77,0.54,2.85c0.53,1.2,1.61,2.5,2.31,2.31c0.48-0.13,0.44-0.83,1.09-2.71
	c0.64-1.84,0.97-2.77,1.77-3.12c0.8-0.36,2-0.13,2.43,0.54c0.5,0.77-0.38,1.51-0.67,3.8c-0.17,1.3,0.11,1.19,0,3.26
	c-0.12,2.36-0.5,3.06,0,3.52c0.48,0.47,1.06-0.01,2.85,0.28c1.06,0.17,1.74,0.28,2.17,0.81c0.54,0.67,0.01,1.19,0.27,2.99
	c0.17,1.07,0.37,0.98,0.82,2.98c0.21,0.98,0.2,1.16,0.4,1.76c0.01,0.04,0.02,0.07,0.03,0.11c0.17,0.5,0.31,0.91,0.49,1.27
	c0.02,0.07,0.06,0.13,0.09,0.19c0.06,0.11,0.15,0.23,0.23,0.34c0.07,0.09,0.15,0.19,0.25,0.27c0.83,0.76,1.53,0.24,3.4,0.82
	c0.75,0.23,1.53,0.59,2.06,0.96c0.4,0.27,0.63,0.54,0.6,0.75c0.29-0.15,0.79,0.23,1.14,0.49c0.59,0.46,0.88,1.01,0.98,1.18
	c0.44,0.87,0.68,2.06,0.83,3.05c0.02-0.11,0.07-0.22,0.11-0.32c0.13-0.3,0.31-0.48,0.38-0.55c0.61-0.64,1.46-0.67,1.63-0.69
	c0.18,0,0.4,0.02,0.81,0.18c0.42,0.18,1.04,0.53,2.04,1.19c1.5,0.99,1.41,1.08,2.03,1.36c0.99,0.42,1.87,0.47,2.86,0.54
	c1.41,0.08,1.42-0.13,2.43,0c0.68,0.08,1.85,0.24,2.99,1.08c0.76,0.57,1.3,1.29,1.61,1.82c0.45,0.2,1.1,0.55,1.81,0.96h0.01
	c0.12,0.07,0.24,0.14,0.37,0.21c0,0,0.64,1.01,1.09,1.63c0.77,1.06,1.16,1.59,1.76,1.9c1.36,0.69,2.12-0.59,3.8,0
	c0.91,0.32,0.85,0.75,2.44,1.49c0.9,0.42,1.02,0.32,1.63,0.68c0.14,0.08,0.25,0.15,0.36,0.22c0.09,0.07,0.19,0.14,0.28,0.23
	l0.01,0.01c0.36,0.32,0.68,0.72,1.39,1.44c0.87,0.89,1.47,1.49,2.31,2.17c1.24,0.99,1.8,1.15,1.89,1.76
	c0.12,0.71-0.47,1.39-0.8,1.77c-1,1.12-2.06,1.17-2.04,1.63c0.02,0.41,0.91,0.89,1.49,0.67c0.37-0.13,0.41-0.48,1.17-1.05
	c0.1-0.07,0.29-0.21,0.45-0.31c0.77-0.4,1.61,0,3.13,0.42c1.37,0.36,1.17,0.18,2.44,0.54c0.69,0.2,1.56,0.45,2.58,0.95
	c0.71,0.34,1.68,0.9,2.72,1.76c3.11,0.64,3.66,0.68,3.66,0.68c1.88,0.15,1.84-0.26,3.25,0c1.4,0.27,2.49,0.87,2.85,1.09
	c0.97,0.55,0.82,0.68,1.77,1.22c1.03,0.58,1.31,0.48,2.85,1.21c1.39,0.68,1.63,0.99,1.76,1.22c0.32,0.6,0.05,0.87,0.28,1.78
	c0.32,1.33,1.07,1.4,1.07,2.17c0.02,0.69-0.88,1.42-2.71,2.85c-0.78,0.61-1.52,1.28-2.31,1.89c-0.58,0.48-1.05,0.84-1.21,1.49
	c-0.15,0.62,0.05,1.15,0.14,1.37c0.47,1.21,1.52,1.29,1.62,2.03c0.08,0.66-0.75,0.78-1.36,1.9c-0.61,1.11-0.13,1.6-0.68,4.07
	c-0.32,1.48-0.6,1.76-0.81,1.9c-0.6,0.41-1.1,0.03-2.44,0c-1.2-0.02-1.14,0.27-3.53,0.68c-1.98,0.33-2.69,0.25-2.85,0.68
	c-0.19,0.5,0.66,0.81,1.22,2.31c0.38,0.97,0.1,1.09,0.54,2.3c0.38,1.04,0.75,1.44,0.55,1.76c-0.28,0.46-1.13-0.02-1.64,0.42
	c-0.32,0.28-0.34,0.79-0.27,1.37c0.13,1.09,0.58,2.4,0.01,2.83c-0.44,0.33-1.1-0.1-1.36,0.27c-0.24,0.33,0.26,0.71,0.27,1.49
	c0.02,1.01-0.75,1.29-0.81,2.31c-0.04,0.68,0.26,1.2,0.47,1.56c0.75,1.29,1.93,1.58,5.16,2.99c2.33,1.03,2.1,1.05,3.87,1.76
	c0.75,0.31,2.44,0.99,4.2,1.49c4.42,1.26,7.45,0.84,7.47,1.16c0.01,0.33-3.2,1.34-6.91,0.79c7.28,1.45,14.82,2.19,22.53,2.19
	c64.22,0,116.29-52.07,116.29-116.31C323.3,144.48,323.04,140.18,322.55,135.91z M233.09,81.6c0.73,0.87,0.95,1.81,1.09,2.44
	c0.32,1.43,0.02,2.06,0.55,2.53c0.38,0.35,0.73,0.17,1.44,0.32c1.58,0.34,2.55,1.71,3.43,3.01c0.02,0.02,0.04,0.05,0.05,0.07
	c0.77,1.11,1.2,1.74,1.04,2.54c-0.08,0.43-0.33,0.79-0.64,1.08c-0.3,0.3-0.68,0.55-1.03,0.76c-1,0.64-1.96,0.83-2.99,0.96
	c-0.08,0.01-0.18,0.02-0.26,0.04c-0.27,0.03-3.1,0.4-3.27-0.18c-0.01-0.04-0.01-0.08,0.01-0.12c0-0.01,0.02-0.04,0.03-0.07
	c0.02-0.05,0.06-0.11,0.12-0.14c0.06-0.06,0.12-0.12,0.17-0.17c0.08-0.07,0.15-0.13,0.23-0.18c0.2-0.15,0.43-0.3,0.63-0.46
	c0.06-0.05,0.11-0.09,0.17-0.14c0.13-0.12,0.23-0.22,0.26-0.33c0.02-0.02,0.03-0.06,0.03-0.08c0-0.03,0-0.05-0.01-0.08
	c-0.04-0.13-0.19-0.18-0.41-0.21c-0.04-0.01-0.1-0.02-0.16-0.02c-0.07,0-0.16-0.01-0.25-0.01c-0.26-0.02-0.54-0.02-0.83-0.05
	c-0.08-0.01-0.18-0.02-0.26-0.05c-0.14-0.02-0.27-0.06-0.4-0.12c-0.07-0.02-0.14-0.06-0.2-0.1c-0.05-0.03-0.1-0.05-0.15-0.1
	c-0.07-0.06-0.14-0.12-0.2-0.19c-0.06-0.07-0.1-0.15-0.14-0.23c-0.03-0.06-0.05-0.12-0.07-0.18c-0.04-0.11-0.06-0.23-0.08-0.33
	c-0.03-0.12-0.04-0.24-0.04-0.36c0-0.58,0.22-1.18,0.61-1.53c0.49-0.43,1.19-0.35,1.62-0.4c0.09-0.01,0.18-0.02,0.23-0.06
	c0.03-0.01,0.05-0.02,0.06-0.04c0.04-0.03,0.06-0.05,0.07-0.09c0.11-0.28-0.4-0.65-1.07-1.31c-1.3-1.26-1.01-1.43-2.45-2.94
	c-0.03-0.02-0.04-0.04-0.06-0.06c-0.07-0.08-0.14-0.15-0.22-0.21l-0.33-0.33c-0.04-0.05-0.09-0.09-0.14-0.13
	c-0.05-0.05-0.08-0.08-0.13-0.12c-0.26-0.22-0.44-0.38-0.59-0.53c-0.06-0.05-0.11-0.1-0.15-0.16c-0.11-0.13-0.21-0.28-0.32-0.49
	c-0.12-0.23-0.95-1.83-0.23-2.76c0.33-0.43,0.85-0.55,1.09-0.59c0.84-0.18,1.55,0.19,2.34,0.59
	C231.91,80.61,232.53,80.93,233.09,81.6z M226.9,37.63c0.11-0.04,0.23-0.06,0.34-0.07c0.02-0.01,0.05-0.03,0.09-0.03
	c0.06-0.01,0.11-0.02,0.15-0.02c0.28-0.03,0.54-0.05,0.81-0.01c0.07,0.01,0.13,0.02,0.2,0.02c0.01-0.01,0.02-0.01,0.04,0
	c0.26,0.04,0.5,0.1,0.75,0.19c0.12,0.04,0.24,0.08,0.35,0.13c0.14,0.06,0.28,0.13,0.42,0.22c0.13,0.07,0.26,0.15,0.39,0.24
	c0.18,0.12,0.33,0.25,0.49,0.41c0.07,0.06,0.14,0.13,0.2,0.2c0.11,0.12,0.21,0.23,0.3,0.35c0.29,0.42,0.5,0.87,0.63,1.34
	c0.04,0.13,0.08,0.25,0.09,0.38c0.03,0.12,0.05,0.25,0.06,0.37c0.08,0.58,0.04,1.16-0.05,1.68c-0.04,0.17-0.08,0.34-0.13,0.51
	c-0.02,0.08-0.05,0.15-0.08,0.22c-0.03,0.08-0.06,0.15-0.1,0.23c-0.03,0.08-0.07,0.16-0.12,0.23c-0.08,0.14-0.16,0.27-0.27,0.37
	c-0.05,0.06-0.09,0.11-0.15,0.14c-0.09,0.06-0.17,0.11-0.25,0.13c-0.72,0.23-1.09-0.99-3.62-2.71c-1.85-1.25-2.81-1.4-2.89-2.17
	C224.43,39.03,225.73,37.97,226.9,37.63z M222.91,89.25c0.38-0.62,1.13-0.53,1.91-1.54c0.15-0.21,0.2-0.33,0.26-0.42
	c0.04-0.09,0.08-0.16,0.19-0.27c0.62-0.62,1.76-0.87,2.63-0.54c1.42,0.56,2,2.66,1.35,4.07c-0.06,0.14-0.13,0.26-0.22,0.38
	c-0.07,0.11-0.15,0.21-0.24,0.31c-0.09,0.09-0.17,0.18-0.26,0.25c-0.02,0.01-0.03,0.02-0.04,0.02c-0.05,0.05-0.09,0.08-0.14,0.12
	c-0.05,0.03-0.1,0.07-0.14,0.09c-0.13,0.09-0.25,0.16-0.38,0.22c-0.11,0.06-0.22,0.1-0.31,0.14c-0.07,0.03-0.14,0.07-0.21,0.09
	c-0.09,0.03-0.18,0.06-0.25,0.09c-0.07,0.02-0.14,0.03-0.2,0.06c-0.7,0.22-2.12,0.65-3.18-0.23C222.83,91.38,222.45,90,222.91,89.25
	z M122.04,162.81c-1.27,0.74-2.97,0.13-3.67-0.82c-0.54-0.77-0.09-1.26-0.67-2.04c-0.42-0.57-1.24-0.84-2.86-1.36
	c-1.44-0.46-1.7-0.42-2.44-0.82c-0.61-0.32-1.9-1.13-1.76-1.62c0.15-0.54,2.05-0.55,3.53-0.27c1.7,0.32,2.03,0.88,4.89,2.31
	c2.89,1.44,4.05,1.62,4.2,2.58C123.4,161.6,122.67,162.43,122.04,162.81z M131.55,166.87c-0.82,1.36-3.9,1.61-5.17,0
	c-0.61-0.79-0.85-2.06-0.27-2.99c0.83-1.31,2.97-1.29,4.2-0.54c0.19,0.12,1.08,0.65,1.37,1.76
	C131.72,165.29,131.95,166.18,131.55,166.87z M206.63,56.45c-0.48,0.62-0.88,0.53-2.89,1.44c-1.81,0.83-2.71,1.25-3.26,1.81
	c-0.27,0.29-0.46,0.56-0.59,0.82c-0.03,0.06-0.06,0.11-0.07,0.16c-0.05,0.09-0.08,0.2-0.12,0.29c-0.04,0.11-0.07,0.21-0.09,0.33
	c-0.03,0.05-0.04,0.1-0.04,0.16c-0.05,0.22-0.09,0.46-0.13,0.68c-0.03,0.2-0.08,0.41-0.14,0.61c-0.06,0.19-0.12,0.38-0.21,0.58
	c-0.13,0.28-0.32,0.59-0.59,0.9c-0.09,0.09-0.17,0.19-0.27,0.27c-0.17,0.16-0.35,0.32-0.53,0.45c-0.16,0.12-0.33,0.22-0.5,0.32
	c-0.02,0.02-0.04,0.03-0.07,0.03c-0.15,0.1-0.3,0.17-0.46,0.24c-0.13,0.06-0.25,0.11-0.35,0.14c-0.11,0.05-0.2,0.09-0.31,0.12
	c-0.47,0.15-0.83,0.21-0.96,0.24c-1.96,0.32-2.71-0.64-4.15,0c-0.93,0.4-1.69,1.25-2,2.16c-0.45,1.34,0.35,1.82,0,3.45
	c-0.31,1.41-0.98,1.29-1.27,2.71c-0.33,1.63,0.42,2.33-0.18,3.25c-0.5,0.77-1.11,0.44-1.81,1.27c-0.92,1.11-0.25,2.2-1.08,2.9
	c-0.66,0.55-1.86,0.53-2.54,0c-0.94-0.73-0.24-1.98-1.08-2.71c-0.86-0.76-1.92,0.23-4.17-0.37c-0.78-0.21-1.76-0.46-2.16-1.26
	c-0.49-0.94,0.35-1.58,0-2.71c-0.39-1.21-1.51-1.05-2.36-2.36c-0.66-1.02-0.61-2.07-0.54-3.8c0.07-1.63,0.16-3.64,1.26-4.17
	c0.95-0.42,1.93,0.55,2.54,0c0.13-0.11,0.36-0.4,0.18-1.98c-0.27-2.29-0.9-2.98-0.54-3.44c0.58-0.74,2.55,0.74,3.8-0.17
	c0.88-0.66,1.11-2.25,0.53-2.9c-0.63-0.74-2.17-0.09-2.34-0.55c0,0,0,0,0-0.01c0-0.05,0.07-0.38,1.62-1.8c0,0-0.01-1.53,0.37-2.71
	c0.53-1.71,1.63-1.99,1.44-2.71c-0.26-1-2.42-0.88-2.53-1.64c-0.12-0.85,2.62-1.47,2.53-2.35c-0.06-0.71-1.96-1.43-3.62-1.08
	c-1.05,0.22-1.75,0.83-3.06,1.99c-1.38,1.2-1.18,1.36-2.18,2.17c-0.32,0.26-1.85,1.44-4.16,1.99c-1.71,0.4-1.76-0.04-3.07,0.36
	c-1.99,0.61-2.06,1.67-3.99,2.54c-0.18,0.08-0.37,0.15-0.56,0.21c-0.99,0.37-2.12,0.54-3.02,0.46c-0.1,0-0.2-0.01-0.29-0.04
	c-0.17-0.02-0.34-0.05-0.48-0.11c-0.1-0.04-0.21-0.09-0.31-0.15c-0.08-0.04-0.16-0.1-0.23-0.16c-0.07-0.06-0.13-0.13-0.18-0.21
	c-0.14-0.24-0.2-0.55-0.18-0.88c0-0.08,0.01-0.17,0.03-0.25c0.01-0.08,0.03-0.16,0.06-0.24c0.01-0.07,0.03-0.11,0.05-0.17
	s0.04-0.12,0.08-0.18c0.02-0.06,0.04-0.12,0.09-0.18c0.02-0.06,0.06-0.1,0.1-0.15c0.13-0.2,0.3-0.38,0.5-0.49
	c1.01-0.57,2.44,0.59,3.44-0.17c0.17-0.15,0.35-0.36,0.46-0.48c0.52-0.61,0.63-1.06,0.8-1.34c0.07-0.11,0.17-0.2,0.26-0.27
	l0.02-0.02c0.01,0,0.01,0,0.02,0h0.01c0.07-0.05,0.14-0.08,0.23-0.11c0.09-0.02,0.19-0.05,0.28-0.06c0.14-0.01,0.3-0.02,0.46-0.02
	c0.11,0,0.21,0,0.33,0.01l0.02-0.01c0.09,0,0.21,0.01,0.31,0.01c0.57,0,1.16-0.06,1.69-0.44c0,0,0.13-0.09,0.37-0.57
	c0.05-0.09,0.11-0.2,0.16-0.33l0.01-0.01c0.05-0.11,0.11-0.22,0.15-0.37c0.02-0.02,0.03-0.04,0.04-0.07
	c0.06-0.16,0.13-0.34,0.21-0.55c0.04-0.11,0.07-0.22,0.12-0.33c0.01-0.06,0.04-0.11,0.06-0.18c0.09-0.31,0.2-0.64,0.32-1.02
	c0,0,0.05-0.04,0.13-0.08c0.04-0.03,0.08-0.06,0.14-0.1c0.4-0.28,1.21-0.81,1.9-1.26c1.44-0.94,2.16-1.4,2.53-1.46
	c0.86-0.12,1.78,0.19,2.42,0.59h0.01c0.24-0.27,0.53-0.54,0.84-0.77c0.66-0.5,1.37-0.76,3.25-1.09c1.74-0.29,2.48-0.3,4.7-0.54
	c3.59-0.37,4.34-0.62,5.07,0c0.79,0.69,0.47,1.5,1.45,2.18c0.77,0.53,2.03,0.72,2.71,0.17c0.74-0.58,0.28-1.57,0.9-1.98
	c0.94-0.62,2.45,1.14,3.63,0.54c0.76-0.39,0.42-1.31,1.26-1.99c1.17-0.95,3.65-0.64,4.35,0.55c0.69,1.18-0.81,2.56,0,3.8
	c0.59,0.91,1.65,0.5,2.16,1.44c0.19,0.34,0.23,0.72-0.35,3.25c-0.46,2.02-0.63,2.44-0.37,2.72c0.59,0.6,2.12-0.82,3.26-0.18
	c0.76,0.44,0.88,1.53,1.08,3.44C207.21,54.45,207.33,55.56,206.63,56.45z"/>
<path class="st3" d="M120.08,181.67c0.08-0.04,0.14-0.1,0.15-0.19C120.15,181.52,120.1,181.59,120.08,181.67z"/>
<path class="st2" d="M269.44,53.64"/>
<path class="st2" d="M154.62,55.14L154.62,55.14c0.01,0,0.03-0.01,0.04-0.02C154.65,55.12,154.63,55.13,154.62,55.14z"/>
<path d="M229.25,90.55c-0.06,0.14-0.13,0.26-0.22,0.38c-0.07,0.11-0.15,0.21-0.24,0.31c-0.09,0.09-0.17,0.18-0.26,0.25
	c-0.02,0.01-0.03,0.02-0.04,0.02c-0.05,0.05-0.09,0.08-0.14,0.12c-0.05,0.03-0.1,0.07-0.14,0.09c-0.13,0.09-0.25,0.16-0.38,0.22
	c-0.11,0.06-0.22,0.1-0.31,0.14c-0.07,0.03-0.14,0.07-0.21,0.09c-0.09,0.03-0.18,0.06-0.25,0.09c-0.07,0.02-0.14,0.03-0.2,0.06
	c-0.7,0.22-2.12,0.65-3.18-0.23c-0.85-0.71-1.23-2.09-0.77-2.84c0.38-0.62,1.13-0.53,1.91-1.54c0.15-0.21,0.2-0.33,0.26-0.42
	c0.04-0.09,0.08-0.16,0.19-0.27c0.62-0.62,1.76-0.87,2.63-0.54C229.32,87.04,229.9,89.14,229.25,90.55z"/>
<path d="M240.69,92.51c-0.08,0.43-0.33,0.79-0.64,1.08c-0.3,0.3-0.68,0.55-1.03,0.76c-1,0.64-1.96,0.83-2.99,0.96
	c-0.08,0.01-0.18,0.02-0.26,0.04c-0.27,0.03-3.1,0.4-3.27-0.18c-0.01-0.04,0-0.07,0.01-0.12c0-0.01,0.02-0.04,0.03-0.07
	c0.02-0.05,0.06-0.11,0.12-0.14c0.06-0.06,0.12-0.12,0.17-0.17c0.08-0.07,0.15-0.13,0.23-0.18c0.2-0.15,0.43-0.3,0.63-0.46
	c0.06-0.05,0.11-0.09,0.17-0.14c0.13-0.12,0.23-0.22,0.26-0.33c0.02-0.02,0.03-0.06,0.03-0.08c0-0.03,0-0.05-0.01-0.08
	c-0.04-0.13-0.19-0.18-0.41-0.21c-0.04-0.01-0.1-0.02-0.16-0.02c-0.07,0-0.16-0.01-0.25-0.01c-0.26-0.02-0.54-0.02-0.83-0.05
	c-0.08-0.01-0.18-0.02-0.26-0.05c-0.14-0.02-0.27-0.06-0.4-0.12c-0.07-0.02-0.14-0.06-0.2-0.1c-0.05-0.03-0.1-0.05-0.15-0.1
	c-0.07-0.06-0.14-0.12-0.2-0.19c-0.06-0.07-0.1-0.15-0.14-0.23c-0.03-0.06-0.05-0.12-0.07-0.18c-0.04-0.11-0.06-0.23-0.08-0.33
	c-0.03-0.12-0.04-0.24-0.04-0.36c0-0.58,0.22-1.18,0.61-1.53c0.49-0.43,1.19-0.35,1.62-0.4c0.09-0.01,0.18-0.02,0.23-0.06
	c0.03-0.01,0.05-0.02,0.06-0.04c0.04-0.03,0.06-0.05,0.07-0.09c0.11-0.28-0.4-0.65-1.07-1.31c-1.3-1.26-1.01-1.43-2.45-2.94
	c-0.03-0.02-0.04-0.04-0.06-0.06c-0.07-0.08-0.14-0.15-0.22-0.21c-0.11-0.13-0.22-0.24-0.33-0.33c-0.04-0.05-0.09-0.09-0.14-0.13
	c-0.05-0.05-0.08-0.08-0.13-0.12c-0.26-0.22-0.44-0.38-0.59-0.53c-0.06-0.05-0.11-0.1-0.15-0.16c-0.11-0.13-0.21-0.28-0.32-0.49
	c-0.12-0.23-0.95-1.83-0.23-2.76c0.33-0.43,0.85-0.55,1.09-0.59c0.84-0.18,1.55,0.19,2.34,0.59c0.63,0.32,1.25,0.64,1.81,1.31
	c0.73,0.87,0.95,1.81,1.09,2.44c0.32,1.43,0.02,2.06,0.55,2.53c0.38,0.35,0.73,0.17,1.44,0.32c1.58,0.34,2.55,1.71,3.43,3.01
	c0.02,0.02,0.04,0.05,0.05,0.07C240.42,91.08,240.85,91.71,240.69,92.51z"/>
<path class="st2" d="M183.11,262.65c-18.41-3.83-35.22-12.03-49.29-23.45c-3.28-2.65-6.41-5.48-9.38-8.47
	c-0.8-0.82-1.6-1.64-2.38-2.48c-0.64-0.67-1.26-1.37-1.88-2.07c-0.01-0.01-0.03-0.02-0.05-0.05c-2.87-3.22-5.57-6.6-8.07-10.14
	c-0.28-0.38-0.54-0.77-0.82-1.16c-0.01-0.01-0.02-0.02-0.02-0.04c-0.33-0.47-0.66-0.96-0.98-1.44c-0.76-1.14-1.49-2.29-2.22-3.45
	c-8.14-13.16-13.73-28.07-16.07-44.05c-0.82-5.55-1.24-11.25-1.24-17.04c0-1.26,0.02-2.53,0.07-3.78l1.27,2.43c0,0.01,0,0.01,0,0.02
	c0.02,0.29,0.04,0.59,0.07,0.87v0.03c0.09,0.98,0.23,2.19,0.47,3.56c0.32,1.9,0.43,1.9,1.09,5.03c0.83,3.95,0.77,4.49,1.49,5.42
	c0.79,1.03,1.85,1.65,2.98,2.31c1.81,1.06,2.74,1.09,3.4,2.17c0.13,0.22,0.21,0.4,0.25,0.56c0.05,0.15,0.06,0.29,0.07,0.42
	c0.01,0.09,0.02,0.19,0.04,0.29c0.01,0.09,0.02,0.18,0.04,0.28c0.01,0.09,0.05,0.19,0.09,0.29c0.03,0.11,0.07,0.21,0.13,0.33
	c0,0.02,0,0.02,0.01,0.03c0.01,0.03,0.02,0.07,0.04,0.1c0.62,1.25,1.65,1.91,2.72,2.58c2.1,1.34,2.54,0.79,3.26,1.64
	c1.27,1.51-0.19,3.17,1.22,5.02c0.31,0.4,0.27,0.17,2.17,1.9c1.06,0.95,1.06,1.02,1.76,1.62c1.75,1.53,2.66,2.31,3.4,2.04
	c0.4-0.15,0.41-0.45,1.09-1.36c0.64-0.88,1.31-1.49,1.79-1.88c0.4,0.27,0.63,0.54,0.6,0.75c-0.08,0.04-0.13,0.11-0.15,0.19
	c-0.18,0.56,0.4,1.94-0.3,2.8c-0.59,0.73-1.39,0.2-1.99,0.91c-0.85,0.98,0.34,2.5-0.64,3.8c-0.38,0.5-0.7,0.46-0.9,0.99
	c-0.28,0.74,0.08,1.55,0.36,2.17c0.36,0.79,0.59,0.86,0.91,1.44c0.53,1,0.51,1.92,0.45,3.72c-0.05,1.64-0.31,1.24-0.37,2.89
	c-0.01,0.64,0.01,1.19-0.35,1.45c-0.45,0.31-1.07-0.15-1.27,0.09c-0.24,0.28,0.51,1.03,1.09,2.26c0.69,1.49,0.25,1.75,0.9,2.99
	c0.51,0.97,0.74,0.72,1.9,2.35c0.87,1.23,0.83,1.49,1.45,1.98c0.76,0.63,1.04,0.4,2.08,1.09c0.51,0.35,1.24,0.84,1.72,1.72
	c0.51,0.96,0.19,1.37,0.72,2.08c0.46,0.62,0.82,0.46,1.72,1.09c1.25,0.87,1.03,1.48,2.45,2.71c0.74,0.65,0.73,0.43,1.8,1.27
	c1.19,0.95,1.16,1.19,2.27,2.08c1.11,0.89,2.14,1.43,2.34,1.54c1.46,0.75,1.68,0.53,2.26,1.09c0.07,0.07,0.13,0.13,0.19,0.2
	c0.05,0.05,0.09,0.11,0.13,0.16v0.01c0.11,0.14,0.19,0.28,0.25,0.42c0.02,0.04,0.04,0.07,0.05,0.11c0.01,0.04,0.03,0.07,0.05,0.11
	c0.02,0.08,0.05,0.15,0.08,0.22c0.01,0.01,0.01,0.04,0.02,0.05c0.03,0.07,0.05,0.14,0.07,0.2c0.09,0.2,0.19,0.4,0.38,0.58
	c0.06,0.07,0.14,0.13,0.24,0.2c0.82,0.57,1.34,0.02,2.07,0.55c0.91,0.62,0.39,1.62,1.27,3.43c0.56,1.16,0.83,0.86,1.83,2.61
	c0.58,1.01,0.64,1.35,1.26,2.24c0.61,0.88,0.8,0.89,1.43,1.69c0.53,0.7,0.77,1.19,0.96,1.61c0.08,0.18,0.15,0.36,0.22,0.52
	c0.01,0.03,0.03,0.05,0.04,0.06c0.03,0.1,0.08,0.19,0.14,0.29c0,0.01,0,0.01,0.01,0.01c0.05,0.11,0.12,0.21,0.19,0.32
	c0.1,0.14,0.2,0.28,0.33,0.45c0.74,0.88,0.87,0.54,2.48,1.94l0.07,0.07h0.01c0.05,0.05,0.08,0.07,0.12,0.11
	c0.65,0.57,1.2,1.12,1.61,1.56c0.16,0.18,0.31,0.34,0.42,0.47c0.15,0.17,0.25,0.3,0.31,0.37c1.04,1.23,1.05,1.53,1.87,2.24
	c0.7,0.6,0.85,0.52,1.99,1.35c1.15,0.85,1.1,0.99,2.18,1.81c1.17,0.9,1.3,0.76,2.8,1.81c1.1,0.78,1.21,0.98,2.26,1.72
	c0.86,0.61,1.2,0.75,2.62,1.63c1.37,0.85,1.42,0.98,2.26,1.44c0.1,0.05,1.04,0.58,2.18,1.02c1.93,0.77,3.46,0.94,4.75,1.16
	C180.96,261.47,181.46,262.18,183.11,262.65z"/>
<path class="st2" d="M154.62,55.14L154.62,55.14c0.01,0,0.03-0.01,0.04-0.02C154.65,55.12,154.63,55.13,154.62,55.14z"/>
<path class="st2" d="M143.56,59.46c0.08-0.16,0.16-0.3,0.24-0.45c0.04-0.07,0.08-0.15,0.12-0.22c-0.05,0.07-0.09,0.14-0.13,0.21
	C143.72,59.16,143.64,59.31,143.56,59.46z M142.58,62.01c-0.04,0.15-0.09,0.29-0.13,0.43c0.05-0.14,0.09-0.28,0.14-0.43
	c0.2-0.64,0.45-1.37,0.77-2.09c0.06-0.16,0.13-0.31,0.2-0.46c-0.07,0.15-0.14,0.3-0.21,0.46C143.03,60.64,142.79,61.37,142.58,62.01
	z M142.25,63.08c0.03-0.08,0.05-0.16,0.08-0.25c0.04-0.13,0.08-0.25,0.12-0.39c-0.04,0.14-0.09,0.26-0.13,0.39
	C142.3,62.92,142.28,63,142.25,63.08z M141.26,65.36c0.06-0.1,0.14-0.24,0.23-0.43c0.05-0.09,0.08-0.19,0.14-0.33
	c-0.07,0.14-0.11,0.23-0.15,0.32C141.39,65.12,141.31,65.26,141.26,65.36z"/>
<path d="M162.75,69.44c-1.28-1.57-1.67-1.67-1.9-2.46c-0.13-0.45-0.02-0.5,0.13-2.43c0.22-2.48,0.1-2.89,0-3.13
	c-0.28-0.79-0.56-0.65-1.22-1.89c-0.61-1.21-0.47-1.59-0.94-1.91c-0.89-0.59-2.06,0.31-2.44-0.13c-0.52-0.61,1.38-2.61,0.95-3.12
	c-0.15-0.17-0.51-0.16-0.97-0.02c-0.12,0.04-0.25,0.08-0.37,0.12c-0.39,0.15-0.82,0.36-1.24,0.59c-0.03,0.03-0.06,0.04-0.09,0.06
	c-0.01,0.01-0.03,0.02-0.04,0.03c-0.12,0.07-0.24,0.14-0.35,0.21c-0.12,0.07-0.23,0.14-0.34,0.23c-1.3,0.93-1.78,1.79-2.17,1.63
	c-0.46-0.2,0.06-1.43-0.54-3.13c-0.2-0.56-0.62-1.71-1.64-2.16c-1.25-0.57-2.88,0.2-3.79,1.08c-0.99,0.95-0.64,1.57-1.77,3.66
	c-0.31,0.57-0.85,1.32-1.87,2.66c-0.18,0.22-0.37,0.47-0.57,0.74c-1.03,1.34-0.33,0.35-2.85,3.39c-0.82,0.98-1.08,1.31-1.62,1.49
	c-1.2,0.38-2.4-0.37-3.13-0.81c-0.78-0.48-2.15-1.33-2.03-2.17c0.12-0.83,1.6-0.89,4.89-2.31c2.91-1.26,3.7-2.06,3.93-2.31
	c0.29-0.32,0.54-0.65,0.75-0.98c0.03-0.03,0.04-0.05,0.05-0.07c0.2-0.32,0.36-0.64,0.49-0.95c0.08-0.18,0.14-0.36,0.2-0.52
	l0.01-0.04l0.61-3c-1.12,0.74-2.23,1.5-3.32,2.29c-6.32,4.49-12.16,9.6-17.44,15.25c-5.08,5.41-9.63,11.31-13.6,17.62h-0.01
	c-0.89,1.41-1.74,2.84-2.57,4.3l-0.01,0.01c-1.53,2.68-2.95,5.41-4.26,8.22v0.01c-0.01,0.01-0.01,0.01-0.01,0.02l-0.02,0.01
	c-0.14,0.31-0.28,0.63-0.43,0.94c0,0.01,0,0.01,0,0.01c-0.48,1.04-0.94,2.08-1.38,3.14c-4.98,11.79-8.07,24.57-8.89,37.97v0.03
	c-0.08,1.13-0.14,2.27-0.16,3.41v0.01l1.27,2.43c0,0.01,0,0.01,0,0.02c0.02,0.29,0.04,0.59,0.07,0.87v0.03
	c0.09,0.98,0.23,2.19,0.47,3.56c0.32,1.9,0.43,1.9,1.09,5.03c0.83,3.95,0.77,4.49,1.49,5.42c0.79,1.03,1.85,1.65,2.98,2.31
	c1.81,1.06,2.74,1.09,3.4,2.17c0.13,0.22,0.21,0.4,0.25,0.56c0.05,0.15,0.06,0.29,0.07,0.42c0.01,0.09,0.02,0.19,0.04,0.29
	c0.01,0.09,0.02,0.18,0.04,0.28c0.01,0.09,0.05,0.19,0.09,0.29c0.03,0.11,0.07,0.21,0.13,0.33c0,0.02,0,0.02,0.01,0.03
	c0.01,0.03,0.02,0.07,0.04,0.1c0.62,1.25,1.65,1.91,2.72,2.58c2.1,1.34,2.54,0.79,3.26,1.64c1.27,1.51-0.19,3.17,1.22,5.02
	c0.31,0.4,0.27,0.17,2.17,1.9c1.06,0.95,1.06,1.02,1.76,1.62c1.75,1.53,2.66,2.31,3.4,2.04c0.4-0.15,0.41-0.45,1.09-1.36
	c0.64-0.88,1.31-1.49,1.79-1.88c-0.53-0.37-1.31-0.73-2.06-0.96c-1.87-0.58-2.57-0.06-3.4-0.82c-0.1-0.08-0.18-0.18-0.25-0.27
	c-0.08-0.11-0.17-0.23-0.23-0.34c-0.03-0.06-0.07-0.12-0.09-0.19c-0.18-0.36-0.32-0.77-0.49-1.27c-0.01-0.04-0.02-0.07-0.03-0.11
	c-0.2-0.6-0.19-0.78-0.4-1.76c-0.45-2-0.65-1.91-0.82-2.98c-0.26-1.8,0.27-2.32-0.27-2.99c-0.43-0.53-1.11-0.64-2.17-0.81
	c-1.79-0.29-2.37,0.19-2.85-0.28c-0.5-0.46-0.12-1.16,0-3.52c0.11-2.07-0.17-1.96,0-3.26c0.29-2.29,1.17-3.03,0.67-3.8
	c-0.43-0.67-1.63-0.9-2.43-0.54c-0.8,0.35-1.13,1.28-1.77,3.12c-0.65,1.88-0.61,2.58-1.09,2.71c-0.7,0.19-1.78-1.11-2.31-2.31
	c-0.47-1.08-0.22-1.55-0.54-2.85c-0.44-1.82-1.11-1.79-1.76-3.53c-0.1-0.24-0.18-0.5-0.24-0.75c-0.32-1.23-0.3-2.42-0.19-3.58
	c0.01-0.1,0.02-0.21,0.03-0.31c0.02-0.1,0.02-0.21,0.03-0.31c0,0,0,0,0.01,0V149c0.02-0.23,0.06-0.48,0.08-0.72
	c0.24-1.76,0.65-2.85,0.81-3.23c0.01-0.01,0.01-0.01,0.01-0.02c0.46-1.1,0.92-2.17,2.04-2.86c0.38-0.22,1.14-0.7,2.03-0.54
	c1.29,0.22,1.51,1.53,2.31,1.49c1.13-0.05,1.23-2.59,2.58-2.85c0.66-0.13,1.35,0.46,2.71,1.63c1.38,1.17,2.05,1.76,2.45,2.58
	c0.49,1.03,0.26,1.54,0.4,5.02c0.12,2.82,0.29,3.16,0.55,3.26c0.65,0.26,2.02-0.96,2.58-2.44c0.25-0.69,0.26-1.26-0.27-5.16
	c-0.33-2.42-0.43-2.83-0.27-3.66c0.29-1.63,1.17-2.76,1.49-3.13c0.22-0.27,1.57-1.85,3.65-2.45c0.5-0.13,1.05-0.21,1.64-0.67
	c0.28-0.21,0.73-0.65,1.09-1.49c0.97-2.33-0.55-3.71,0.4-5.57c0.56-1.1,1.63-1.68,2.04-1.9c1.56-0.84,2.48-0.33,3.12-1.08
	c0.96-1.15-0.5-3.1,0.27-3.8c0.98-0.89,3.91,1.76,5.15,0.82c1.01-0.78-0.2-3.03,1.09-4.07c0.24-0.21,0.92-0.36,2.31-0.69
	c1.43-0.33,1.58-0.26,2.16-0.54c0.87-0.42,0.92-0.76,1.78-1.08c0.71-0.27,1.63-0.4,1.76-0.14c0.13,0.27-0.73,0.64-1.08,1.63
	c-0.32,0.89-0.15,2.04,0.27,2.17c0.51,0.16,0.83-1.41,2.44-2.17c0.65-0.31,0.73-0.11,2.98-0.55c1.11-0.21,1.68-0.33,2.18-0.54
	c0.7-0.31,2.25-0.98,2.3-2.17c0.04-0.88-0.75-1.87-1.49-1.9c-0.59-0.03-0.62,0.58-1.76,1.09c-0.9,0.4-2.04,0.54-2.04,0.54
	c-0.3-0.1-1.07-0.42-1.63-1.22c-0.13-0.19-0.9-1.29-0.54-2.31c0.36-1.04,1.49-0.9,1.76-1.9c0.22-0.82-0.26-1.93-0.95-2.17
	c-0.16-0.06-0.32-0.06-0.39-0.04c-1.21,0.08-2.6,1.39-3.41,2.08c-1.37,1.17-2.64,2.25-3.39,1.89c-0.54-0.25-0.76-1.19-0.55-1.89
	c0.23-0.7,0.83-0.9,3.13-2.04c2.39-1.19,2.33-1.28,2.85-1.36c1.22-0.2,1.45,0.25,3.93,0.68c1.73,0.29,2.92,0.49,4.34,0.14
	c1.03-0.26,1-0.5,2.31-0.95c2.01-0.7,4.31-0.89,4.49-0.41c0.12,0.35-1.07,0.77-2.58,2.58c-0.46,0.54-0.74,0.96-1.09,1.49
	c-0.95,1.42-1.41,2.13-1.22,2.58c0.29,0.71,1.79,0.77,2.98,0.82c1.24,0.04,1.34-0.18,2.17,0c0.63,0.13,0.77,0.29,2.31,0.94
	c1.52,0.65,1.74,0.64,1.9,0.55c0.57-0.32,0.62-1.6,0.27-2.58c-0.52-1.47-1.59-1.33-2.45-2.71c-0.84-1.39-0.68-3.02-0.53-4.62
	c0.18-2.01,0.77-2.96,0.13-3.94c-0.37-0.56-0.6-0.32-1.36-1.08c-1.03-1.05-0.84-1.76-1.89-2.99c-0.75-0.87-0.92-0.58-1.37-1.22
	c-0.66-0.95-0.34-1.65-0.54-4.35c-0.07-1.12-0.21-2.13-0.54-3.25c-0.32-1.13-0.57-1.94-1.08-2.04c-0.64-0.12-0.97,1.03-2.58,2.18
	c-0.85,0.6-1.69,1.21-2.58,0.95c-1-0.29-1.73-1.57-1.49-2.44c0.22-0.83,1.16-0.81,1.36-1.64c0.08-0.35-0.04-0.65-0.96-2.16
	c-1.39-2.3-1.63-2.48-1.9-2.58c-0.6-0.26-0.71,0.03-2.43,0c-1.66-0.04-1.97-0.32-2.45,0c-0.45,0.28-0.39,0.66-0.95,2.31
	c-0.46,1.36-0.69,2.04-1.09,2.56c-0.92,1.25-1.7,0.94-2.17,1.91c-0.47,0.99,0.29,1.49,0.13,3.4c-0.06,0.68-0.15,1.88-0.94,2.84
	c-0.37,0.45-1.15,0.84-2.71,1.63c-1.45,0.72-1.92,0.87-2.45,1.49c-0.13,0.17-0.29,0.37-0.82,1.64c-1.01,2.38-1.07,3.04-1.49,3.11
	c-0.56,0.11-1.47-0.84-1.62-1.89c-0.25-1.6,1.39-2.34,1.37-3.95c0-0.09-0.01-0.17-0.02-0.27c-0.1-0.8-0.58-1.39-1.08-2.03
	c-1-1.23-1.54-0.96-2.31-2.04c-0.11-0.14-0.19-0.28-0.26-0.41c-0.05-0.09-0.09-0.17-0.12-0.24c-0.07-0.15-0.13-0.31-0.16-0.44
	c-0.05-0.13-0.09-0.25-0.12-0.37c-0.03-0.1-0.06-0.2-0.1-0.29c-0.02-0.05-0.03-0.1-0.06-0.14c-0.04-0.1-0.09-0.19-0.15-0.28
	c-0.09-0.14-0.23-0.27-0.39-0.4c-0.69-0.54-1.18-0.32-1.49-0.81c-0.05-0.06-0.07-0.14-0.1-0.21c-0.02-0.06-0.03-0.13-0.03-0.2
	c0-0.08,0-0.16,0.01-0.26c0.01-0.05,0.02-0.09,0.03-0.15c0.09-0.42,0.32-1,0.63-1.9c0.89-2.55,0.69-2.64,1.22-3.53
	c0.13-0.21,0.42-0.66,0.88-1.18c0.09-0.12,0.21-0.23,0.33-0.35s0.24-0.25,0.38-0.37c0.09-0.09,0.2-0.18,0.32-0.27
	c1.8-1.46,2.48-0.71,4.47-2.17c0.95-0.7,1.91-1.36,2.85-2.03c0.51-0.37,0.95-0.69,1.35-0.55c0.56,0.19,0.42,1,1.09,1.62
	c0.77,0.73,1.96,0.58,2.18,0.55c0.97-0.12,2.51-0.79,2.57-2.04c0.05-0.89-0.66-1.82-1.49-2.03c-1.13-0.28-1.94,0.93-2.58,0.54
	c-0.49-0.29-0.59-1.4-0.13-1.89c0.47-0.52,1.25-0.05,3.25,0c2.09,0.04,3.45-0.43,3.8-0.55c0.64-0.22,1.42-0.52,2.18-1.22
	c0.57-0.54,0.92-1.13,1.22-1.63c0.56-0.95,0.44-1.1,0.95-1.91c0.43-0.68,0.8-1.26,1.49-1.62c0.02-0.01,0.03-0.02,0.06-0.02
	c0.42-0.2,1.06-0.23,2.25-0.25c0.33-0.01,0.6-0.01,0.84-0.01c1.18,0.02,1.37,0.18,1.46,0.28c0.26,0.3,0.13,0.55,0.13,1.9
	c0,1.82,0.23,1.95,0,2.72c-0.07,0.25-0.33,1.09-1.07,1.76c-0.7,0.62-1.13,0.46-1.77,1.08c-0.73,0.7-0.42,1.12-0.96,1.63
	c-1.11,1.09-3-0.3-4.47,0.82c-0.62,0.46-1.03,1.27-0.82,1.62c0.33,0.57,1.9-0.39,3.26,0.42c0.56,0.32,0.87,0.84,1.5,1.89
	c0.45,0.77,0.45,0.98,1.08,2.18c0.91,1.71,1.21,1.84,1.36,1.89c0.86,0.27,2.13-0.5,2.17-1.22c0.04-0.86-1.71-1.23-1.63-2.03
	c0.06-0.65,1.31-1.28,1.9-0.95c0.65,0.35,0.15,1.62,0.95,2.17c0.43,0.29,1.11,0.29,1.5,0c0.88-0.66,0.25-2.71,0.13-3.12
	c-0.34-1.16-0.73-1.24-0.82-2.18c-0.02-0.39-0.13-1.56,0.69-2.16c0.53-0.42,1.4-0.52,1.89-0.14c0.39,0.3,0.26,0.68,0.68,1.9
	c0.32,0.91,0.52,1.49,0.96,1.62c0.4,0.13,0.73-0.19,1.62-0.8c2.01-1.4,2.59-1.31,2.72-1.91C164.35,71.38,163.82,70.71,162.75,69.44z
	 M147.44,56.84c0,0.06-0.02,0.13-0.03,0.21c-0.02,0.07-0.04,0.15-0.05,0.23c-0.02,0.1-0.05,0.2-0.08,0.3
	c-0.03,0.1-0.06,0.2-0.09,0.31c0,0.01-0.01,0.02-0.01,0.02c-0.04,0.11-0.07,0.22-0.11,0.34c-0.03,0.11-0.07,0.23-0.11,0.34
	c-0.08,0.24-0.18,0.48-0.27,0.71s-0.19,0.46-0.28,0.69c-0.1,0.27-0.22,0.52-0.32,0.74c-0.1,0.24-0.19,0.44-0.26,0.61
	c-0.45,1-0.82,1.68-1.17,2.18c-0.26,0.37-0.5,0.63-0.74,0.86c-0.09,0.07-0.17,0.14-0.26,0.21c-0.45,0.36-0.95,0.64-1.38,0.83
	c-0.6,0.26-1.08,0.36-1.15,0.25c-0.02-0.02-0.01-0.05,0.04-0.14c0.02-0.04,0.05-0.09,0.09-0.16c0,0-0.01-0.01,0-0.01
	c0.05-0.1,0.13-0.24,0.22-0.44c0.04-0.09,0.08-0.18,0.15-0.32c0.02-0.05,0.05-0.11,0.08-0.17c0,0,0.06-0.15,0.15-0.35
	c0.03-0.08,0.07-0.17,0.11-0.26c0.02-0.05,0.04-0.09,0.06-0.14c0.05-0.11,0.09-0.24,0.14-0.38c0.03-0.07,0.06-0.14,0.08-0.22
	c0.03-0.08,0.05-0.16,0.07-0.25c0.04-0.13,0.09-0.25,0.13-0.39c0.04-0.14,0.09-0.28,0.13-0.43c0.21-0.64,0.45-1.37,0.77-2.09
	c0.07-0.16,0.14-0.31,0.21-0.46c0.08-0.15,0.16-0.3,0.23-0.46c0.04-0.07,0.08-0.14,0.13-0.21c0.03-0.07,0.07-0.14,0.12-0.22
	c0.26-0.44,0.56-0.84,0.89-1.22c0.66-0.75,1.88-1.74,2.34-1.45l0.01,0.01c0.03,0.02,0.07,0.05,0.09,0.09
	c0.03,0.05,0.06,0.12,0.08,0.19c0,0.04,0.01,0.08,0.01,0.13C147.48,56.47,147.47,56.64,147.44,56.84z"/>
<path class="st2" d="M147.44,56.84c0,0.06-0.03,0.13-0.04,0.21c-0.01,0.07-0.03,0.14-0.05,0.23c-0.02,0.1-0.05,0.2-0.07,0.3
	c-0.03,0.1-0.06,0.2-0.09,0.31c0,0.01-0.01,0.02-0.01,0.02c-0.04,0.11-0.07,0.22-0.11,0.34c-0.03,0.11-0.07,0.23-0.12,0.34
	c-0.08,0.23-0.17,0.47-0.26,0.71c-0.09,0.23-0.19,0.46-0.28,0.69c-0.11,0.27-0.23,0.52-0.32,0.74c-0.1,0.24-0.19,0.44-0.26,0.61
	c-0.45,1-0.82,1.68-1.17,2.18c-0.26,0.36-0.5,0.63-0.74,0.86c-0.09,0.07-0.17,0.14-0.26,0.21c-0.46,0.35-0.95,0.63-1.38,0.83
	c-0.6,0.26-1.08,0.36-1.15,0.25c-0.02-0.02-0.01-0.05,0.04-0.14c0.02-0.04,0.05-0.09,0.09-0.16c0,0-0.01-0.01,0-0.01
	c0.05-0.1,0.13-0.24,0.22-0.44c0.04-0.09,0.08-0.18,0.15-0.32c0.02-0.05,0.05-0.11,0.08-0.17c0,0,0.06-0.15,0.15-0.35
	c0.04-0.08,0.08-0.17,0.11-0.26c0.02-0.05,0.04-0.09,0.06-0.14c0.05-0.11,0.09-0.24,0.14-0.38c0.03-0.07,0.06-0.14,0.08-0.22
	c0.03-0.08,0.05-0.16,0.07-0.25c0.04-0.13,0.09-0.25,0.13-0.39c0.04-0.14,0.09-0.28,0.13-0.43c0.21-0.64,0.45-1.37,0.77-2.09
	c0.07-0.16,0.14-0.31,0.21-0.46c0.08-0.15,0.16-0.3,0.23-0.46c0.04-0.07,0.08-0.14,0.13-0.21c0.03-0.07,0.07-0.14,0.12-0.22
	c0.26-0.44,0.56-0.84,0.89-1.22c0.66-0.75,1.88-1.74,2.34-1.45l0.01,0.01c0.04,0.03,0.06,0.05,0.09,0.09
	c0.03,0.05,0.06,0.11,0.08,0.19c0,0.04,0.01,0.08,0.01,0.13C147.48,56.46,147.47,56.64,147.44,56.84z"/>
<path d="M322.55,135.91c-0.2-0.07-0.42-0.16-0.65-0.29c-1.35-0.8-1.46-1.97-2.44-3.35c-0.69-0.96-0.78-0.6-3.35-2.81
	c-2.09-1.8-2.82-2.71-3.08-2.53c-0.23,0.15,0.15,0.92,1.09,3.35c1.42,3.68,1.51,4.39,2.34,4.79c1.41,0.68,2.65-0.61,3.45,0.1
	c0.67,0.6-0.07,1.72-0.18,4.6c-0.08,2.14,0.3,2.15,0.18,4.52c-0.1,1.92-0.43,3.3-0.55,3.81c-0.35,1.44-0.8,2.54-1.09,3.16
	c-0.15,0.36-0.17,0.38-1.89,3.35c-0.68,1.18-1.03,1.79-1.72,2.54c-0.42,0.45-1.38,1.5-1.9,1.26c-0.32-0.15-0.2-0.66-0.45-1.44
	c-0.33-1.04-0.95-1.44-1.45-2.08c-0.79-1-0.51-1.54-1.18-4.99c-0.39-2.01-0.59-3.02-0.99-3.97c-0.81-1.92-1.4-1.87-2.36-3.9
	c-0.72-1.53-0.43-1.63-1.35-4.25c-1.35-3.8-2.22-4.27-2.63-4.43c-0.9-0.36-2.12-0.22-2.44,0.36c-0.32,0.58,0.44,1.24,1.45,3.26
	c0.95,1.89,0.6,1.94,1.54,3.79c1.02,2.04,1.43,1.98,2.08,3.63c0.58,1.46,0.28,1.57,0.9,3.25c0.75,2.01,1.17,1.88,1.72,3.53
	c0.75,2.28,0.09,3.03,0.99,3.89c0.59,0.56,1.24,0.6,2.18,1.64c0.37,0.4,0.57,0.73,0.67,0.93c0.12,0.22,0.47,0.9,0.5,1.78
	c0.05,1.23-0.57,1.7-0.27,2.16c0.37,0.57,1.56,0.38,1.63,0.37c2.01-0.33,2.78-2.67,3.43-2.44c0.54,0.18,0.42,1.83,0.37,2.54
	c-0.13,1.81-0.54,2.94-1.09,4.7c-1.15,3.74-0.81,3.63-1.54,5.24c-0.4,0.92-0.39,0.69-2.16,3.8c-1.73,3.04-1.69,3.18-2.45,4.26
	c-1.25,1.78-1.48,1.59-2.71,3.34c-0.31,0.45-0.49,0.73-2.44,4.34c-1.58,2.9-1.78,3.3-2.08,3.99c-0.82,1.82-1.22,2.74-1.37,3.71
	c-0.34,2.46,0.75,3.05,0.19,5.24c-0.04,0.19-0.46,1.07-1.26,2.81c-1.14,2.45-1.34,2.73-1.54,2.98c-0.9,1.12-1.28,0.87-2.81,2.27
	c-1.51,1.37-1.24,1.73-2.63,2.89c-1.47,1.25-1.96,1.01-2.88,2.08c-0.7,0.81-0.52,1.06-1.46,2.99c-1.09,2.24-1.63,3.38-2.8,4.07
	c-1.3,0.77-1.89,0.16-2.81,0.99c-1.1,1-0.49,2.07-1.62,3.26c-0.87,0.9-1.37,0.47-2.63,1.54c-0.79,0.67-0.67,0.91-1.81,2.26
	c-0.76,0.91-1.39,1.48-2.44,2.45c-1.38,1.26-2.08,1.9-2.71,2.26c-0.79,0.44-1.93,0.68-4.17,1.17c-3.16,0.69-2.84,0.43-4.07,0.82
	c-1.74,0.55-2.5,1.12-3.08,0.72c-0.5-0.36-0.65-1.3-0.35-1.99c0.48-1.16,1.93-0.89,2.34-1.91c0.36-0.82-0.49-1.27-0.9-3.25
	c-0.34-1.68-0.08-3.1,0-3.53c0.35-1.79,0.95-1.83,1-3.16c0.03-0.97-0.27-0.99-0.82-3.25c-0.09-0.43-0.25-1.38-0.54-3.27
	c-0.21-1.28-0.3-2.03,0.09-2.81c0.19-0.36,0.32-0.4,0.68-0.85c1.1-1.38,0.75-2.15,1.63-3.53c0.63-0.98,0.83-0.61,1.89-2.03
	c1.1-1.46,1.21-2.24,1.23-2.45c0.09-0.84-0.24-1.07-0.41-2.04c-0.18-1.09,0.08-1.7,0.34-2.35c0.22-0.55,0.42-1.11,0.33-1.98
	c-0.13-1.5-0.98-2.66-1.62-3.54c-0.72-0.97-1.52-1.67-1.63-1.76c-0.82-0.7-0.92-0.56-1.22-0.95c-0.24-0.31-0.33-0.63-0.34-1.39
	c-0.03-0.53,0.01-1.29,0.07-2.41c0.07-1.31,0.12-1.97,0.14-2.17c0.27-2.28,0.76-2.79,0.4-3.6c-0.36-0.86-1.32-1.2-2.1-1.49
	c-1.98-0.73-2.73,0.19-4.28-0.54c-1.15-0.56-0.97-1.17-2.37-1.84c-1.21-0.56-2.29-0.54-2.52-0.54c-1.36,0.05-2.19,0.65-3.38,1.29
	c0,0-1.69,0.91-4.75,1.83c-1.99,0.61-1.99,0.22-7.74,0.82c-1.02,0.11-1.79,0.2-2.39,0.26c-1.43,0.17-1.99,0.18-2.9-0.06
	c-2.07-0.55-3.8-1.89-4.07-2.1c-1.22-0.96-1.14-1.29-2.38-2.11c-1.39-0.91-1.96-0.78-2.99-1.69c-0.73-0.66-0.48-0.76-1.62-2.17
	c-1.1-1.36-1.39-1.36-2.92-3.13c-1.07-1.23-0.94-1.25-1.4-1.63c-1.47-1.17-2.4-0.69-3.17-1.62c-0.79-0.97-0.69-2.59-0.27-3.62
	c0.53-1.3,1.44-1.4,1.63-2.62c0.01-0.06,0.01-0.12,0.01-0.16c0.06-0.74-0.32-0.89-0.38-2.02c-0.08-1.77,0.85-2.06,0.64-3.35
	c-0.22-1.41-1.38-1.41-1.63-2.98c-0.01-0.09-0.22-1.53,0.64-2.63c0.59-0.75,1.08-0.54,1.8-1.17c1.36-1.17,0.58-2.7,1.81-4.89
	c0.71-1.24,0.98-0.78,2.08-2.34c1.7-2.42,1.25-3.8,2.54-4.44c1.19-0.6,1.93,0.43,3.25-0.27c1.37-0.71,1.87-2.45,1.99-2.89
	c0.39-1.37-0.06-1.75,0.37-2.72c0.53-1.21,1.42-1.08,2.71-2.26c2.15-1.96,1.54-3.97,3.35-4.8c0.57-0.26,1.25-0.2,2.63-0.09
	c3.23,0.26,4.01,1.25,5.61,0.81c1.2-0.33,0.91-0.93,2.61-1.98c1.43-0.88,2.12-0.75,6.06-1.72c3.07-0.76,2.67-0.83,4.17-1.09
	c0.56-0.09,1.02-0.15,5.61-0.36c2.86-0.14,3.18-0.14,3.53,0.18c1.2,1.12-0.37,3.38,0.99,5.15c0.4,0.52,1.17,0.84,2.71,1.46
	c3.01,1.19,3.41,0.74,5.16,1.62c0.42,0.21,0.76,0.41,1.04,0.61c1.3,0.92,1.51,1.71,3.13,2.11c0.21,0.05,0.44,0.1,0.69,0.12
	c1.17,0.15,2.54,0.02,3.01-0.76c0.5-0.8-0.24-1.89,0.37-2.44c0.35-0.32,0.88-0.23,1.27-0.19c1.43,0.19,2.9-0.11,4.33,0
	c0.21,0.03,0.58,0.05,1.05,0.09c0.9,0.06,2.18,0.13,3.59,0.13c0.56,0.01,1.13,0,1.69-0.03c2.88-0.1,4.26-0.49,5.16-0.81
	c1.45-0.52,2.55-0.94,3.08-1.99c0.4-0.82,0.16-1.92-0.36-4.07c-0.55-2.3-0.85-3.46-1.53-3.8c-0.97-0.49-1.66,0.48-4.17,1.09
	c-1.11,0.26-2.8,0.66-4.46,0.24c-0.39-0.09-0.77-0.23-1.15-0.43c-0.16-0.09-0.77-0.41-1.35-0.99c-0.24-0.22-0.46-0.49-0.65-0.82
	l-0.01-0.02c-0.19-0.3-0.34-0.66-0.43-1.06c-0.15-0.69-0.08-1.35,0.12-1.94c0.31-0.96,0.91-1.77,1.33-2.32
	c0.29-0.39,0.59-0.71,0.9-1c0.56-0.52,1.16-0.92,1.81-1.35c1.03-0.68,2.28-1.51,3.89-1.9c3.34-0.8,5.83,0.92,6.24,0.19
	c0.28-0.51-0.66-1.57-1.62-2.63c-1.32-1.46-1.93-1.65-2.9-2.63c-2.18-2.18-2.62-4.72-2.99-4.61c-0.41,0.13,0.76,3.1-0.54,4.26
	c-0.72,0.64-1.91,0.42-2.26,0.35c-2.39-0.44-3.16-2.87-3.89-2.61c-0.1,0.03-0.18,0.1-0.25,0.21c-0.67,0.89-0.81,4.25,0.43,7.24
	c0.54,1.3,1.24,2.3,0.77,3.18c-0.39,0.72-1.5,1.2-2.4,1.3c-0.64,0.08-0.95-0.07-1.37,0.04c-0.08,0.02-0.17,0.05-0.26,0.1
	c-0.52,0.26-0.96,0.78-1.08,1.36c-0.14,0.63,0.13,1.12,0.27,1.49c0.18,0.44,0.27,0.93,0.29,1.42v0.01c0.1,1.53-0.41,3.08-1.1,3.32
	c-0.54,0.19-1.35-0.61-2.99-2.17c-1.41-1.35-2.1-2.01-2.58-2.85c-1.15-2-0.48-2.94-1.63-4.07c-0.59-0.59-0.79-0.37-2.85-1.36
	c-1.38-0.67-2.43-1.18-3.53-2.04c-0.24-0.19-0.45-0.38-0.64-0.54c-1.34-1.25-1.6-2.13-2.62-2.17c-0.91-0.05-1.93,0.63-2.03,1.36
	c-0.09,0.6,0.47,1.17,1.76,2.17c0.32,0.25,0.64,0.48,0.96,0.7c2,1.44,3.8,2.45,4.75,2.97c1.9,1.05,4.22,2.32,4.07,2.71
	c-0.1,0.22-0.88-0.07-1.36,0.4c-0.38,0.38-0.29,0.96-0.27,1.63c0,0.22,0.01,2.17-0.7,3.22v0.01c-0.04,0.06-0.07,0.11-0.12,0.16
	c-0.59,0.72-1.73,1-2.71,0.97c-0.87-0.04-1.61-0.3-1.77-0.7c-0.14-0.35,0.25-0.64,0.77-1.48c0-0.01,0-0.01,0-0.01
	c0.15-0.23,0.3-0.49,0.45-0.82c0.33-0.67,0.69-1.44,0.78-2.15c0.08-0.39,0.05-0.76-0.09-1.1c-0.36-0.81-1.11-0.72-3.67-1.9
	c-1.46-0.67-2.38-1.09-3.4-1.9c-0.42-0.33-0.7-0.61-0.92-0.85c-0.47-0.54-0.71-0.97-1.65-1.73c-1.25-1.01-2.39-1.92-3.39-1.62
	c-1.39,0.41-0.96,2.66-2.58,3.38c-0.03,0.01-0.04,0.01-0.06,0.02c-0.81,0.35-1.45,0-2.22-0.08h-0.09c-0.23-0.03-0.47-0.02-0.75,0.03
	c0,0-0.01,0.01-0.02,0.01c-0.17,0.02-0.33,0.08-0.52,0.16c-0.57,0.25-1.02,0.76-1.91,1.77c-1.49,1.69-1.29,2.08-2.3,2.85
	c-0.95,0.71-1.41,0.58-2.04,1.35c-0.43,0.53-0.53,0.99-0.82,1.9c-0.6,1.96-0.9,2.93-1.22,3.4c-1.25,1.82-4.08,1.98-5.02,2.04
	c-1.51,0.07-1.26-0.32-3.8-0.42c-1.87-0.07-2.61,0.13-4.07-0.27c-0.9-0.24-1.89-0.52-2.31-1.35c-0.14-0.28-0.16-0.53,0-2.18
	c0.24-2.39,0.35-2.47,0.28-3.12c-0.1-0.81-0.26-0.72-0.68-2.44c-0.31-1.23-0.45-1.86-0.27-2.31c0.07-0.2,0.43-0.98,2.44-1.49
	c2.16-0.54,3.35-0.05,6.92,0.13c1.06,0.06,1.84,0.06,2.41,0.02h0.01c1.21-0.07,1.5-0.31,1.65-0.55c0.27-0.42,0-0.63-0.54-3.53
	c-0.25-1.32-0.31-1.87-0.82-2.31c-0.43-0.38-0.93-0.45-1.76-0.54c-1.78-0.21-2.33,0.31-2.98-0.14c-0.69-0.48-0.96-1.66-0.55-2.31
	c0.37-0.58,1.12-0.42,2.32-0.65h0.01c0.04-0.01,0.08-0.01,0.11-0.03c1.21-0.25,2.31-0.99,4.46-2.47c0.05-0.04,0.11-0.07,0.16-0.11
	c1.02-0.68,0.8-0.61,2.9-2.15c0.07-0.04,0.14-0.1,0.22-0.16c0.55-0.39,0.83-0.59,1.22-0.94c0.61-0.55,0.89-0.94,1.91-2.31
	c1.45-1.97,1.61-2.15,1.89-2.71c0.5-0.98,0.76-1.49,0.68-2.18c-0.11-0.99-0.81-1.15-0.95-2.17c-0.13-0.95,0.31-2.14,0.95-2.3
	c0.88-0.22,2.01,1.5,2.45,2.17c1.32,2.04,1.03,3.19,2.03,3.66c0.1,0.05,0.18,0.08,0.26,0.1H253c0.62,0.13,1.08-0.43,2.99-0.64
	c2.2-0.24,3.06,0.35,4.2-0.4c0.76-0.5,0.54-0.86,1.22-1.22c1.44-0.77,2.89,0.54,3.86,0.11c0.07-0.02,0.14-0.07,0.21-0.11
	c0.65-0.51,0.6-1.74,0.41-2.45c-0.35-1.27-1.38-1.46-1.36-2.44c0.02-0.67,0.5-0.68,0.82-1.77c0.34-1.14-0.09-1.45,0.27-2.03
	c0.55-0.87,1.62-0.4,2.58-1.36c0.67-0.68,0.99-1.76,0.68-2.04c-0.42-0.38-1.53,1.15-3.53,1.22c-1.2,0.06-2.2-0.44-4.07-1.35
	c-1.11-0.54-1.67-0.82-1.9-1.09c-0.49-0.57-0.82-1.41-0.95-6.38c-0.03-1.11-0.03-1.69-0.41-1.89c-0.65-0.35-2.16,0.6-2.17,1.49
	c0,0.92,1.63,1.56,1.36,2.44c-0.02,0.04-0.03,0.07-0.05,0.1c-0.38,0.82-1.42,0.64-1.99,1.12c-0.73,0.62-0.63,2.32,0,3.39
	c0.65,1.12,1.41,0.82,2.44,2.04c1.06,1.23,1.27,2.69,1.36,3.4c0.2,1.39-0.06,2.41-0.4,3.8c-0.17,0.64-0.3,1.17-0.44,1.63
	c-0.33,1.09-0.66,1.72-1.33,2.02c-1.11,0.51-2.77,0.02-3.25-0.94c-0.51-1,0.59-1.78,0.13-3.13c-0.07-0.2-0.15-0.35-0.26-0.47
	c0,0,0-0.01-0.01-0.03c-0.32-0.39-0.82-0.55-1.64-1.53c-1.24-1.52-1.1-2.35-2.02-2.71c-0.71-0.28-1.74-0.16-2.18,0.4
	c-0.67,0.86,0.44,2.2-0.27,2.99c-0.37,0.42-1.01,0.4-1.62,0.4c-0.29,0-1.73-0.01-2.58-0.94c-1.03-1.13-0.03-2.25-0.96-4.07
	c-0.75-1.47-1.95-1.84-1.77-2.45c0.23-0.71,1.86-0.25,2.73-1.35c0.53-0.7,0.19-1.27,0.54-2.45c0.44-1.51,1.34-1.76,2.04-2.84
	c1.56-2.49-0.99-4.54,0.26-7.88c0.09-0.23,1.02-2.58,3.26-3.52c1.44-0.62,2.74-0.37,5.15,0.13c3.08,0.62,3.05,1.25,5.71,1.76
	c1.67,0.32,2.72,0.27,3.55,0.32c0.73,0.04,1.3,0.14,2.01,0.63c1.54,1.07,2.39,3.1,1.9,3.67c-0.1,0.1-0.25,0.16-0.44,0.17
	c-1.1,0.1-3.52-1.27-3.64-1.04c-0.07,0.16,0.88,0.71,1.95,1.48c2.92,2.12,3.56,3.49,4.21,3.23c0.01,0,0.02-0.01,0.04-0.02
	c0.85-0.43,0.59-3.33,0.33-4.77c-0.3-1.63-0.73-2.06-0.82-3.44c-0.09-1.38,0.2-2.55,0.51-3.4l0.13-0.31l0.58-1.37
	c0.03,0.03,0.06,0.04,0.09,0.07C298.8,70.03,318.52,101.64,322.55,135.91z"/>
<path d="M191.39,262.14c0.01,0.33-3.2,1.34-6.91,0.79c-0.02,0-0.05-0.01-0.06-0.01c-0.14-0.02-0.28-0.04-0.41-0.07
	c-0.26-0.05-0.51-0.11-0.76-0.16c-0.05-0.02-0.1-0.03-0.14-0.04c-1.65-0.47-2.15-1.18-5.29-1.73c-1.29-0.22-2.82-0.39-4.75-1.16
	c-1.14-0.44-2.08-0.97-2.18-1.02c-0.84-0.46-0.89-0.59-2.26-1.44c-1.42-0.88-1.76-1.02-2.62-1.63c-1.05-0.74-1.16-0.94-2.26-1.72
	c-1.5-1.05-1.63-0.91-2.8-1.81c-1.08-0.82-1.03-0.96-2.18-1.81c-1.14-0.83-1.29-0.75-1.99-1.35c-0.82-0.71-0.83-1.01-1.87-2.24
	c-0.06-0.07-0.16-0.2-0.31-0.37c-0.11-0.13-0.26-0.29-0.42-0.47c-0.41-0.44-0.96-0.99-1.61-1.56c-0.04-0.04-0.07-0.06-0.12-0.11
	h-0.01l-0.07-0.07c-1.61-1.4-1.74-1.06-2.48-1.94c-0.13-0.17-0.23-0.31-0.33-0.45c-0.07-0.11-0.14-0.21-0.19-0.32
	c-0.01,0-0.01,0-0.01-0.01c-0.06-0.1-0.11-0.19-0.14-0.29c-0.01-0.01-0.03-0.03-0.04-0.06c-0.07-0.16-0.14-0.34-0.22-0.52
	c-0.19-0.42-0.43-0.91-0.96-1.61c-0.63-0.8-0.82-0.81-1.43-1.69c-0.62-0.89-0.68-1.23-1.26-2.24c-1-1.75-1.27-1.45-1.83-2.61
	c-0.88-1.81-0.36-2.81-1.27-3.43c-0.73-0.53-1.25,0.02-2.07-0.55c-0.1-0.07-0.18-0.13-0.24-0.2c-0.19-0.18-0.29-0.38-0.38-0.58
	c-0.02-0.06-0.04-0.13-0.07-0.2c-0.01-0.01-0.01-0.04-0.02-0.05c-0.03-0.07-0.06-0.14-0.08-0.22c-0.02-0.04-0.04-0.07-0.05-0.11
	c-0.01-0.04-0.03-0.07-0.05-0.11c-0.06-0.14-0.14-0.28-0.25-0.42v-0.01c-0.04-0.05-0.08-0.11-0.13-0.16
	c-0.06-0.07-0.12-0.13-0.19-0.2c-0.58-0.56-0.8-0.34-2.26-1.09c-0.2-0.11-1.23-0.65-2.34-1.54c-1.11-0.89-1.08-1.13-2.27-2.08
	c-1.07-0.84-1.06-0.62-1.8-1.27c-1.42-1.23-1.2-1.84-2.45-2.71c-0.9-0.63-1.26-0.47-1.72-1.09c-0.53-0.71-0.21-1.12-0.72-2.08
	c-0.48-0.88-1.21-1.37-1.72-1.72c-1.04-0.69-1.32-0.46-2.08-1.09c-0.62-0.49-0.58-0.75-1.45-1.98c-1.16-1.63-1.39-1.38-1.9-2.35
	c-0.65-1.24-0.21-1.5-0.9-2.99c-0.58-1.23-1.33-1.98-1.09-2.26c0.2-0.24,0.82,0.22,1.27-0.09c0.36-0.26,0.34-0.81,0.35-1.45
	c0.06-1.65,0.32-1.25,0.37-2.89c0.06-1.8,0.08-2.72-0.45-3.72c-0.32-0.58-0.55-0.65-0.91-1.44c-0.28-0.62-0.64-1.43-0.36-2.17
	c0.2-0.53,0.52-0.49,0.9-0.99c0.98-1.3-0.21-2.82,0.64-3.8c0.6-0.71,1.4-0.18,1.99-0.91c0.7-0.86,0.12-2.24,0.3-2.8
	c0.08-0.04,0.14-0.1,0.15-0.19c0.29-0.15,0.79,0.23,1.14,0.49c0.59,0.46,0.88,1.01,0.98,1.18c0.44,0.87,0.68,2.06,0.83,3.05
	c-0.28,0.89,0.02,1.85,0.08,1.84c0.07-0.01,0.06-0.82-0.08-1.84c0.02-0.11,0.07-0.22,0.11-0.32c0.13-0.3,0.31-0.48,0.38-0.55
	c0.61-0.64,1.46-0.67,1.63-0.69c0.18,0,0.4,0.02,0.81,0.18c0.42,0.18,1.04,0.53,2.04,1.19c1.5,0.99,1.41,1.08,2.03,1.36
	c0.99,0.42,1.87,0.47,2.86,0.54c1.41,0.08,1.42-0.13,2.43,0c0.68,0.08,1.85,0.24,2.99,1.08c0.76,0.57,1.3,1.29,1.61,1.82
	c-0.38-0.18-0.62-0.25-0.67-0.19c-0.09,0.14,0.86,1.03,0.96,0.95c0.05-0.04-0.04-0.34-0.29-0.76c0.45,0.2,1.1,0.55,1.81,0.96h0.01
	c0.12,0.07,0.24,0.14,0.37,0.21c0,0,0.64,1.01,1.09,1.63c0.77,1.06,1.16,1.59,1.76,1.9c1.36,0.69,2.12-0.59,3.8,0
	c0.91,0.32,0.85,0.75,2.44,1.49c0.9,0.42,1.02,0.32,1.63,0.68c0.14,0.08,0.25,0.15,0.36,0.22c0.09,0.07,0.19,0.14,0.28,0.23
	l0.01,0.01c0.36,0.32,0.68,0.72,1.39,1.44c0.87,0.89,1.47,1.49,2.31,2.17c1.24,0.99,1.8,1.15,1.89,1.76
	c0.12,0.71-0.47,1.39-0.8,1.77c-1,1.12-2.06,1.17-2.04,1.63c0.02,0.41,0.91,0.89,1.49,0.67c0.37-0.13,0.41-0.48,1.17-1.05
	c0.1-0.07,0.29-0.21,0.45-0.31c0.77-0.4,1.61,0,3.13,0.42c1.37,0.36,1.17,0.18,2.44,0.54c0.69,0.2,1.56,0.45,2.58,0.95
	c0.71,0.34,1.68,0.9,2.72,1.76c3.11,0.64,3.66,0.68,3.66,0.68c1.88,0.15,1.84-0.26,3.25,0c1.4,0.27,2.49,0.87,2.85,1.09
	c0.97,0.55,0.82,0.68,1.77,1.22c1.03,0.58,1.31,0.48,2.85,1.21c1.39,0.68,1.63,0.99,1.76,1.22c0.32,0.6,0.05,0.87,0.28,1.78
	c0.32,1.33,1.07,1.4,1.07,2.17c0.02,0.69-0.88,1.42-2.71,2.85c-0.78,0.61-1.52,1.28-2.31,1.89c-0.58,0.48-1.05,0.84-1.21,1.49
	c-0.15,0.62,0.05,1.15,0.14,1.37c0.47,1.21,1.52,1.29,1.62,2.03c0.08,0.66-0.75,0.78-1.36,1.9c-0.61,1.11-0.13,1.6-0.68,4.07
	c-0.32,1.48-0.6,1.76-0.81,1.9c-0.6,0.41-1.1,0.03-2.44,0c-1.2-0.02-1.14,0.27-3.53,0.68c-1.98,0.33-2.69,0.25-2.85,0.68
	c-0.19,0.5,0.66,0.81,1.22,2.31c0.38,0.97,0.1,1.09,0.54,2.3c0.38,1.04,0.75,1.44,0.55,1.76c-0.28,0.46-1.13-0.02-1.64,0.42
	c-0.32,0.28-0.34,0.79-0.27,1.37c0.13,1.09,0.58,2.4,0.01,2.83c-0.44,0.33-1.1-0.1-1.36,0.27c-0.24,0.33,0.26,0.71,0.27,1.49
	c0.02,1.01-0.75,1.29-0.81,2.31c-0.04,0.68,0.26,1.2,0.47,1.56c0.75,1.29,1.93,1.58,5.16,2.99c2.33,1.03,2.1,1.05,3.87,1.76
	c0.75,0.31,2.44,0.99,4.2,1.49C188.34,262.24,191.37,261.82,191.39,262.14z"/>
<path class="st3" d="M120.23,181.48c-0.01,0.09-0.07,0.15-0.15,0.19C120.1,181.59,120.15,181.52,120.23,181.48z"/>
<path class="st3" d="M123.26,188.04c-0.06,0.01-0.36-0.95-0.08-1.84C123.32,187.22,123.33,188.03,123.26,188.04z"/>
<path class="st2" d="M140.36,191.57c-0.1,0.08-1.05-0.81-0.96-0.95c0.05-0.06,0.29,0.01,0.67,0.19
	C140.32,191.23,140.41,191.53,140.36,191.57z"/>
<path class="st2" d="M142.53,53.82c-0.06,0.28-0.14,0.62-0.26,0.97"/>
<path d="M206.63,56.45c-0.48,0.62-0.88,0.53-2.89,1.44c-1.81,0.83-2.71,1.25-3.26,1.81c-0.27,0.29-0.46,0.56-0.59,0.82
	c-0.03,0.06-0.06,0.11-0.07,0.16c-0.05,0.09-0.09,0.2-0.12,0.29c-0.04,0.11-0.07,0.21-0.09,0.33c-0.03,0.05-0.04,0.1-0.04,0.16
	c-0.05,0.22-0.09,0.46-0.13,0.68c-0.03,0.2-0.08,0.41-0.14,0.61c-0.06,0.19-0.12,0.38-0.21,0.58c-0.13,0.28-0.32,0.59-0.59,0.9
	c-0.09,0.09-0.17,0.19-0.27,0.27c-0.17,0.16-0.35,0.32-0.53,0.45c-0.16,0.12-0.33,0.22-0.5,0.32c-0.02,0.02-0.04,0.03-0.07,0.03
	c-0.15,0.1-0.3,0.17-0.46,0.24c-0.13,0.06-0.25,0.11-0.35,0.14c-0.11,0.05-0.2,0.09-0.31,0.12c-0.47,0.15-0.83,0.21-0.96,0.24
	c-1.96,0.32-2.71-0.64-4.15,0c-0.93,0.4-1.69,1.25-2,2.16c-0.45,1.34,0.35,1.82,0,3.45c-0.31,1.41-0.98,1.29-1.27,2.71
	c-0.33,1.63,0.42,2.33-0.18,3.25c-0.5,0.77-1.11,0.44-1.81,1.27c-0.92,1.11-0.25,2.2-1.08,2.9c-0.66,0.55-1.86,0.53-2.54,0
	c-0.94-0.73-0.24-1.98-1.08-2.71c-0.86-0.76-1.92,0.23-4.17-0.37c-0.78-0.21-1.76-0.46-2.16-1.26c-0.49-0.94,0.35-1.58,0-2.71
	c-0.39-1.21-1.51-1.05-2.36-2.36c-0.66-1.02-0.61-2.07-0.54-3.8c0.07-1.63,0.16-3.64,1.26-4.17c0.95-0.42,1.93,0.55,2.54,0
	c0.13-0.11,0.36-0.4,0.18-1.98c-0.27-2.29-0.9-2.98-0.54-3.44c0.58-0.74,2.55,0.74,3.8-0.17c0.88-0.66,1.11-2.25,0.53-2.9
	c-0.63-0.74-2.17-0.09-2.34-0.55c0,0,0,0,0-0.01c0-0.05,0.07-0.38,1.62-1.8c0,0-0.01-1.53,0.37-2.71c0.53-1.71,1.63-1.99,1.44-2.71
	c-0.26-1-2.42-0.88-2.53-1.64c-0.12-0.85,2.62-1.47,2.53-2.35c-0.06-0.71-1.96-1.43-3.62-1.08c-1.05,0.22-1.75,0.83-3.06,1.99
	c-1.38,1.2-1.18,1.36-2.18,2.17c-0.32,0.26-1.85,1.44-4.16,1.99c-1.71,0.4-1.76-0.04-3.07,0.36c-1.99,0.61-2.06,1.67-3.99,2.54
	c-0.18,0.08-0.37,0.15-0.56,0.21c-0.99,0.37-2.12,0.54-3.02,0.46c-0.1,0-0.2-0.01-0.29-0.04c-0.17-0.02-0.34-0.05-0.48-0.11
	c-0.1-0.04-0.21-0.09-0.31-0.15c-0.08-0.04-0.16-0.1-0.23-0.16c-0.07-0.06-0.13-0.13-0.18-0.21c-0.14-0.24-0.2-0.55-0.18-0.88
	c0-0.08,0.01-0.17,0.03-0.25c0.01-0.08,0.03-0.16,0.06-0.24c0.02-0.05,0.03-0.11,0.05-0.17s0.04-0.12,0.08-0.18
	c0.03-0.06,0.05-0.12,0.09-0.18c0.02-0.06,0.06-0.1,0.1-0.15c0.13-0.2,0.3-0.38,0.5-0.49c1.01-0.57,2.44,0.59,3.44-0.17
	c0.17-0.15,0.35-0.36,0.46-0.48c0.52-0.61,0.63-1.06,0.8-1.34c0.07-0.11,0.17-0.2,0.26-0.27c0.02-0.01,0.03-0.01,0.04-0.02h0.01
	c0.07-0.05,0.14-0.08,0.23-0.11c0.09-0.02,0.19-0.05,0.28-0.06c0.14-0.01,0.3-0.02,0.46-0.02c0.11,0,0.21,0,0.33,0.01h0.33
	c0.57,0,1.16-0.06,1.69-0.44c0,0,0.13-0.09,0.37-0.57c0.05-0.09,0.11-0.2,0.16-0.33l0.01-0.01c0.05-0.11,0.11-0.22,0.15-0.37
	c0.02-0.02,0.03-0.04,0.04-0.07c0.07-0.16,0.14-0.35,0.21-0.55c0.04-0.11,0.07-0.22,0.12-0.33c0.01-0.06,0.04-0.11,0.06-0.18
	c0.09-0.31,0.2-0.64,0.32-1.02c0,0,0.05-0.04,0.13-0.08c0.04-0.03,0.08-0.06,0.14-0.1c0.4-0.28,1.21-0.81,1.9-1.26
	c1.44-0.94,2.16-1.4,2.53-1.46c0.86-0.12,1.78,0.19,2.42,0.59c-0.18,0.2-0.35,0.41-0.48,0.6c-0.3,0.44-0.44,0.82-0.31,0.98v0.01
	c0.15,0.19,0.72,0.12,1.15-0.08c0.12-0.06,0.24-0.13,0.32-0.21c0.04-0.03,0.08-0.08,0.11-0.12c0,0,0,0,0-0.01
	c0.03-0.05,0.05-0.09,0.06-0.13c0.01-0.05,0-0.11-0.03-0.17c0-0.03-0.02-0.07-0.04-0.11c-0.05-0.12-0.16-0.26-0.29-0.38
	c-0.13-0.13-0.29-0.26-0.48-0.38c0.24-0.27,0.53-0.54,0.84-0.77c0.66-0.5,1.37-0.76,3.25-1.09c1.74-0.29,2.48-0.3,4.7-0.54
	c3.59-0.37,4.34-0.62,5.07,0c0.79,0.69,0.47,1.5,1.45,2.18c0.77,0.53,2.03,0.72,2.71,0.17c0.74-0.58,0.28-1.57,0.9-1.98
	c0.94-0.62,2.45,1.14,3.63,0.54c0.76-0.39,0.42-1.31,1.26-1.99c1.17-0.95,3.65-0.64,4.35,0.55c0.69,1.18-0.81,2.56,0,3.8
	c0.59,0.91,1.65,0.5,2.16,1.44c0.19,0.34,0.23,0.72-0.35,3.25c-0.46,2.02-0.63,2.44-0.37,2.72c0.59,0.6,2.12-0.82,3.26-0.18
	c0.76,0.44,0.88,1.53,1.08,3.44C207.21,54.45,207.33,55.56,206.63,56.45z"/>
<path class="st2" d="M173.05,40.93c-0.19,0.2-0.35,0.41-0.49,0.6c0.13-0.19,0.3-0.4,0.48-0.6H173.05z"/>
<path class="st2" d="M173.88,41.97c-0.01,0.05-0.03,0.09-0.05,0.13c0,0.01,0,0.01,0,0.01c-0.03,0.04-0.07,0.08-0.11,0.12
	c-0.08,0.08-0.2,0.15-0.32,0.21c-0.43,0.2-1,0.27-1.15,0.07c-0.13-0.16,0.01-0.54,0.31-0.98c0.13-0.19,0.3-0.4,0.48-0.6h0.01
	c0.19,0.12,0.35,0.25,0.48,0.38c0.13,0.13,0.23,0.26,0.29,0.38c0.02,0.04,0.04,0.08,0.04,0.11
	C173.89,41.86,173.89,41.92,173.88,41.97z"/>
<path d="M232.16,43.03c-0.04,0.17-0.08,0.34-0.13,0.51c-0.02,0.08-0.05,0.15-0.08,0.22c-0.03,0.08-0.06,0.15-0.1,0.23
	c-0.03,0.08-0.07,0.16-0.12,0.23c-0.08,0.14-0.16,0.27-0.27,0.37c-0.05,0.06-0.09,0.11-0.15,0.14c-0.09,0.06-0.17,0.11-0.25,0.13
	c-0.72,0.23-1.09-0.99-3.62-2.71c-1.85-1.25-2.81-1.4-2.89-2.17c-0.12-0.95,1.18-2.01,2.35-2.35c0.11-0.04,0.23-0.06,0.34-0.07
	c0.02-0.01,0.05-0.03,0.09-0.03c0.06-0.01,0.11-0.02,0.15-0.02c0.28-0.03,0.54-0.05,0.81-0.01c0.07,0.01,0.13,0.02,0.2,0.02
	c0.01,0.01,0.01,0.01,0.04,0c0.26,0.04,0.5,0.1,0.75,0.19c0.12,0.04,0.24,0.08,0.35,0.13c0.14,0.06,0.28,0.13,0.42,0.22
	c0.13,0.07,0.26,0.15,0.39,0.24c0.18,0.12,0.33,0.25,0.49,0.41c0.07,0.06,0.14,0.13,0.2,0.2c0.11,0.12,0.21,0.23,0.3,0.35
	c0.29,0.42,0.5,0.87,0.63,1.34c0.04,0.13,0.08,0.25,0.09,0.38c0.03,0.12,0.05,0.25,0.06,0.37
	C232.29,41.93,232.25,42.51,232.16,43.03z"/>
<path class="st4" d="M122.04,162.81c-1.27,0.74-2.97,0.13-3.67-0.82c-0.54-0.77-0.09-1.26-0.67-2.04c-0.42-0.57-1.24-0.84-2.86-1.36
	c-1.44-0.46-1.7-0.42-2.44-0.82c-0.61-0.32-1.9-1.13-1.76-1.62c0.15-0.54,2.05-0.55,3.53-0.27c1.7,0.32,2.03,0.88,4.89,2.31
	c2.89,1.44,4.05,1.62,4.2,2.58C123.4,161.6,122.67,162.43,122.04,162.81z"/>
<path d="M131.55,166.87c-0.82,1.36-3.9,1.61-5.17,0c-0.61-0.79-0.85-2.06-0.27-2.99c0.83-1.31,2.97-1.29,4.2-0.54
	c0.19,0.12,1.08,0.65,1.37,1.76C131.72,165.29,131.95,166.18,131.55,166.87z"/>
<line class="st3" x1="92.15" y1="147.66" x2="92.04" y2="147.46"/>
<line class="st3" x1="90.78" y1="145.02" x2="90.76" y2="145.01"/>
<circle class="st1" cx="207.01" cy="147.66" r="116.6"/>
</svg>
