<?xml version="1.0" encoding="utf-8"?>
<!-- Generator: Adobe Illustrator 24.2.1, SVG Export Plug-In . SVG Version: 6.00 Build 0)  -->
<svg version="1.1" xmlns="http://www.w3.org/2000/svg" xmlns:xlink="http://www.w3.org/1999/xlink" x="0px" y="0px"
	 viewBox="0 0 297.64 303" style="enable-background:new 0 0 297.64 303;" xml:space="preserve">
<style type="text/css">
	.st0{display:none;}
	.st1{display:inline;fill:none;}
	.st2{display:inline;}
	.st3{font-family:'FranklinGothic-Medium';}
	.st4{font-size:70px;}
	.st5{display:inline;stroke:#000000;stroke-miterlimit:10;}
	.st6{font-family:'Consolas-Bold';}
	.st7{font-size:60px;}
	.st8{fill:#26A9E1;stroke:#26A9E1;stroke-width:9;stroke-miterlimit:10;}
	.st9{fill:#FFFFFF;stroke:#FFFFFF;stroke-linecap:round;stroke-linejoin:round;stroke-miterlimit:10;}
	.st10{fill:#FFFFFF;}
</style>
<g id="Layer_1" class="st0">
	<rect x="94.04" y="133.5" class="st1" width="156.4" height="92.89"/>
	<text transform="matrix(1 0 0 1 94.0381 180.2222)" class="st2 st3 st4">@</text>
</g>
<g id="Layer_2" class="st0">
	<rect x="40.45" y="101.47" class="st1" width="223.49" height="136.49"/>
	<text transform="matrix(1 0 0 1 40.4536 142.8701)" class="st5 st6 st7">&lt;h1&gt;</text>
</g>
<g id="Layer_2_copy">
	<circle class="st8" cx="148.6" cy="150.23" r="141.44"/>
	<path class="st9" d="M99.53,102.06v27.91l-38.64,21.07l38.57,21.22l0.08,27.68l-68.14-37.29v-23.37L99.53,102.06z"/>
	<path class="st9" d="M198.49,199.93V172.1l38.57-21.14l-38.57-21.22l-0.15-27.68l68.14,37.29v23.37L198.49,199.93z"/>
	<polygon class="st10" points="167.95,86.3 102.26,214.16 132.29,214.16 197.98,86.3 	"/>
</g>
</svg>
