<?xml version="1.0" encoding="utf-8"?>
<!-- Generator: Adobe Illustrator 24.2.1, SVG Export Plug-In . SVG Version: 6.00 Build 0)  -->
<svg version="1.1" xmlns="http://www.w3.org/2000/svg" xmlns:xlink="http://www.w3.org/1999/xlink" x="0px" y="0px"
	 viewBox="0 0 420.94 297.64" style="enable-background:new 0 0 420.94 297.64;" xml:space="preserve">
<style type="text/css">
	.st0{fill:#009447;stroke:#009447;stroke-width:9;stroke-miterlimit:10;}
</style>
<g id="Layer_1">
	<circle cx="220.25" cy="146.15" r="14.63"/>
	
		<ellipse transform="matrix(0.7071 -0.7071 0.7071 0.7071 -40.2648 199.1382)" class="st0" cx="220.25" cy="148.17" rx="137.25" ry="137.25"/>
	<g>
		<path d="M341.17,188.36c-0.53,1.46-1.75,2.5-3.02,3.15c-1.28,0.67-2.65,1.09-4.02,1.39c-2.75,0.6-5.55,0.76-8.33,0.82
			c-5.57,0.08-11.12-0.33-16.63-0.97c-5.52-0.64-11.01-1.43-16.48-2.39c-5.47-0.94-10.92-1.99-16.36-3.14
			c-21.73-4.58-43.19-10.54-64.26-17.61c-21.05-7.14-41.83-15.15-62.07-24.51c-10.11-4.71-20.09-9.72-29.74-15.52
			c-4.82-2.92-9.56-6-14.07-9.64c-2.24-1.85-4.44-3.79-6.45-6.21c-1-1.22-1.96-2.56-2.72-4.26c-0.38-0.85-0.7-1.8-0.84-2.92
			c-0.14-1.1-0.08-2.36,0.34-3.57c0.41-1.21,1.14-2.25,1.93-3.03c0.79-0.8,1.64-1.37,2.46-1.81c1.65-0.89,3.24-1.37,4.78-1.74
			c3.08-0.71,6.03-0.92,8.94-1.02c5.82-0.16,11.48,0.26,17.1,0.87c11.23,1.23,22.25,3.27,33.18,5.64
			c21.85,4.81,43.24,11.28,64.21,18.84c20.96,7.6,41.43,16.56,61.15,26.96c4.93,2.59,9.82,5.28,14.64,8.07
			c4.84,2.77,9.58,5.69,14.25,8.73c4.67,3.04,9.22,6.28,13.48,9.91c2.12,1.82,4.18,3.74,5.94,5.97c0.87,1.11,1.67,2.31,2.24,3.65
			C341.4,185.3,341.68,186.89,341.17,188.36z M340.36,188.08c0.38-1.19,0.14-2.52-0.42-3.71c-0.54-1.2-1.32-2.31-2.19-3.35
			c-1.74-2.08-3.81-3.91-5.93-5.63c-4.3-3.42-9-6.34-13.75-9.12c-9.57-5.48-19.59-10.16-29.74-14.49
			c-10.16-4.32-20.45-8.29-30.8-12.09c-5.16-1.93-10.37-3.75-15.56-5.59c-5.19-1.85-10.41-3.63-15.64-5.36
			c-20.89-7.01-41.98-13.41-63.31-18.66c-10.66-2.61-21.41-4.9-32.18-6.35c-5.38-0.7-10.79-1.21-16.06-1.18
			c-2.62,0.03-5.23,0.18-7.57,0.67c-1.16,0.24-2.24,0.58-3.04,0.99c-0.85,0.42-1.14,0.84-1.23,1.01c-0.07,0.18-0.14,0.71,0.25,1.59
			c0.35,0.84,0.96,1.81,1.71,2.74c1.49,1.89,3.42,3.68,5.42,5.39c4.05,3.41,8.56,6.48,13.16,9.39c9.25,5.8,19,10.94,28.89,15.78
			c19.82,9.63,40.31,17.98,61.09,25.49c20.79,7.49,41.82,14.41,63.26,19.89c10.73,2.69,21.56,5.03,32.53,6.45
			c5.48,0.67,11,1.18,16.52,1.08c2.75-0.08,5.51-0.27,8.18-0.87c1.33-0.3,2.63-0.71,3.8-1.34
			C338.94,190.18,339.94,189.25,340.36,188.08z"/>
	</g>
	<g>
		<path d="M317.03,62.28c1,1.19,1.3,2.76,1.23,4.18c-0.05,1.44-0.37,2.84-0.8,4.18c-0.85,2.69-2.1,5.2-3.43,7.64
			c-2.7,4.87-5.82,9.48-9.12,13.95c-3.3,4.47-6.72,8.84-10.28,13.1c-3.54,4.28-7.16,8.49-10.87,12.62
			c-14.79,16.57-30.63,32.21-47.26,46.97c-16.67,14.7-33.96,28.74-52.15,41.64c-9.11,6.43-18.43,12.59-28.26,18.08
			c-4.93,2.73-9.96,5.3-15.36,7.4c-2.72,1.03-5.5,1.97-8.6,2.51c-1.55,0.26-3.19,0.42-5.05,0.24c-0.92-0.09-1.91-0.29-2.95-0.73
			c-1.02-0.42-2.09-1.11-2.93-2.07c-0.84-0.96-1.38-2.11-1.67-3.18c-0.3-1.09-0.37-2.1-0.35-3.03c0.05-1.88,0.42-3.5,0.87-5.01
			c0.92-3.03,2.21-5.68,3.56-8.27c2.76-5.12,5.94-9.83,9.26-14.4c6.66-9.12,13.91-17.67,21.4-25.98
			c15.05-16.55,31.3-31.89,48.29-46.32c17.02-14.4,34.98-27.7,53.82-39.63c4.71-2.99,9.47-5.89,14.29-8.68
			c4.81-2.82,9.7-5.48,14.67-8.02c4.96-2.54,10.04-4.87,15.3-6.76c2.64-0.93,5.32-1.76,8.13-2.18c1.4-0.21,2.83-0.3,4.28-0.12
			C314.5,60.55,316.02,61.1,317.03,62.28z M316.39,62.83c-0.85-0.92-2.12-1.38-3.43-1.48c-1.31-0.13-2.67,0-4,0.23
			c-2.67,0.47-5.28,1.36-7.84,2.34c-5.11,2.03-9.97,4.65-14.75,7.39c-9.52,5.57-18.56,11.94-27.37,18.58
			c-8.8,6.66-17.37,13.62-25.82,20.7c-4.25,3.52-8.41,7.13-12.59,10.72c-4.19,3.58-8.33,7.22-12.43,10.89
			c-16.47,14.63-32.53,29.74-47.69,45.62c-7.56,7.95-14.9,16.13-21.53,24.76c-3.29,4.32-6.42,8.75-9.02,13.34
			c-1.27,2.28-2.44,4.63-3.18,6.9c-0.37,1.12-0.61,2.23-0.65,3.13c-0.06,0.95,0.16,1.41,0.27,1.57c0.12,0.15,0.55,0.47,1.51,0.57
			c0.9,0.12,2.05,0.06,3.23-0.12c2.38-0.36,4.9-1.13,7.37-2.02c4.97-1.82,9.88-4.2,14.69-6.75c9.63-5.14,18.94-11.03,28.06-17.2
			c18.22-12.4,35.66-26.01,52.51-40.31c16.84-14.3,33.31-29.1,48.73-44.97c7.67-7.96,15.09-16.2,21.78-25.01
			c3.31-4.42,6.5-8.96,9.16-13.79c1.3-2.43,2.51-4.92,3.31-7.53c0.4-1.3,0.69-2.64,0.73-3.97C317.5,65.12,317.2,63.78,316.39,62.83z
			"/>
	</g>
	<g>
		<path d="M166.27,32.51c1.41-0.65,3.01-0.52,4.36-0.07c1.38,0.44,2.63,1.12,3.81,1.88c2.36,1.54,4.45,3.41,6.45,5.35
			c3.97,3.9,7.58,8.14,11,12.51c3.43,4.37,6.72,8.84,9.88,13.4c3.18,4.55,6.27,9.17,9.26,13.84c12.02,18.68,22.86,38.12,32.65,58.08
			c9.71,19.99,18.63,40.4,26.2,61.37c3.76,10.5,7.21,21.13,9.88,32.06c1.31,5.48,2.45,11.02,3.03,16.78
			c0.26,2.89,0.43,5.82,0.12,8.95c-0.17,1.56-0.44,3.19-1.12,4.93c-0.34,0.86-0.79,1.77-1.49,2.65c-0.68,0.87-1.63,1.72-2.77,2.27
			c-1.15,0.55-2.4,0.77-3.51,0.76c-1.13,0-2.13-0.21-3.02-0.48c-1.79-0.55-3.26-1.34-4.6-2.18c-2.67-1.7-4.89-3.64-7.02-5.64
			c-4.2-4.03-7.88-8.35-11.41-12.77c-7.02-8.85-13.32-18.12-19.32-27.56c-11.93-18.92-22.38-38.68-31.74-58.91
			c-9.33-20.24-17.35-41.11-23.82-62.44c-1.62-5.33-3.14-10.69-4.55-16.09c-1.43-5.38-2.69-10.81-3.81-16.27
			c-1.12-5.46-2.01-10.97-2.43-16.55c-0.19-2.79-0.28-5.6,0.07-8.42c0.18-1.4,0.47-2.81,1.03-4.16
			C163.93,34.49,164.87,33.17,166.27,32.51z M166.63,33.28c-1.11,0.57-1.89,1.67-2.34,2.91c-0.47,1.23-0.72,2.57-0.85,3.91
			c-0.26,2.7-0.1,5.45,0.16,8.18c0.59,5.46,1.82,10.85,3.18,16.19c2.83,10.66,6.55,21.08,10.6,31.34
			c4.07,10.26,8.49,20.37,13.06,30.41c2.26,5.03,4.62,10.01,6.97,15c2.34,4.99,4.73,9.95,7.18,14.89
			c9.7,19.78,19.97,39.29,31.23,58.14c5.64,9.41,11.57,18.67,18.11,27.35c3.28,4.32,6.72,8.52,10.45,12.25
			c1.86,1.84,3.81,3.59,5.8,4.91c0.98,0.66,1.99,1.19,2.84,1.46c0.9,0.31,1.4,0.22,1.58,0.16c0.17-0.08,0.6-0.41,0.95-1.3
			c0.35-0.84,0.61-1.96,0.75-3.14c0.29-2.39,0.22-5.02,0.02-7.64c-0.43-5.28-1.41-10.64-2.58-15.96
			c-2.38-10.65-5.58-21.2-9.09-31.63c-7.09-20.87-15.55-41.31-24.82-61.37c-9.29-20.05-19.15-39.87-30.33-58.97
			c-5.63-9.52-11.58-18.87-18.28-27.67c-3.38-4.37-6.9-8.66-10.85-12.51c-1.99-1.9-4.07-3.73-6.37-5.2
			c-1.15-0.73-2.36-1.37-3.63-1.76C169.13,32.82,167.77,32.75,166.63,33.28z"/>
	</g>
	<path d="M263.88,239.13c0,9.61-7.79,17.4-17.4,17.4c-9.61,0-17.4-7.79-17.4-17.4c0-9.61,7.79-17.4,17.4-17.4
		C256.09,221.73,263.88,229.52,263.88,239.13z"/>
	<path d="M162.73,101.13c0,9.61-7.79,17.4-17.4,17.4c-9.61,0-17.4-7.79-17.4-17.4c0-9.61,7.79-17.4,17.4-17.4
		C154.94,83.73,162.73,91.52,162.73,101.13z"/>
	<path d="M291.29,78.03c0,9.61-7.79,17.4-17.4,17.4c-9.61,0-17.4-7.79-17.4-17.4c0-9.61,7.79-17.4,17.4-17.4
		C283.5,60.64,291.29,68.43,291.29,78.03z"/>
</g>
<g id="Layer_2">
</g>
</svg>
