<?xml version="1.0" encoding="utf-8"?>
<!-- Generator: Adobe Illustrator 24.2.1, SVG Export Plug-In . SVG Version: 6.00 Build 0)  -->
<svg version="1.1" xmlns="http://www.w3.org/2000/svg" xmlns:xlink="http://www.w3.org/1999/xlink" x="0px" y="0px"
	 viewBox="0 0 297.64 420.94" style="enable-background:new 0 0 297.64 420.94;" xml:space="preserve">
<style type="text/css">
	.st0{display:none;}
	.st1{display:inline;fill:none;stroke:#000000;stroke-width:4;stroke-linecap:round;stroke-linejoin:round;stroke-miterlimit:10;}
	.st2{display:inline;fill:none;stroke:#000000;stroke-width:3;stroke-linecap:round;stroke-linejoin:round;stroke-miterlimit:10;}
	.st3{display:inline;}
	.st4{fill:none;stroke:#000000;stroke-width:2;stroke-linecap:round;stroke-linejoin:round;stroke-miterlimit:10;}
	.st5{fill:#881728;stroke:#881728;stroke-width:9;stroke-miterlimit:10;}
	.st6{fill:#FFFFFF;stroke:#881728;stroke-width:3;stroke-linecap:round;stroke-linejoin:round;stroke-miterlimit:10;}
	.st7{fill:#881728;}
</style>
<g id="Layer_1" class="st0">
	<path class="st1" d="M197.21,154.74c0-23.22-18.82-42.04-42.04-42.04s-42.04,18.82-42.04,42.04c0,18.29,11.69,33.85,28,39.63v26.76
		c0,8.56-0.51,15.5,10.21,15.5H159c11.5,0,10.21-6.94,10.21-15.5v-26.76C185.53,188.59,197.21,173.04,197.21,154.74z"/>
</g>
<g id="Layer_2" class="st0">
	<line class="st1" x1="173.28" y1="199.28" x2="137.07" y2="211.64"/>
	<line class="st1" x1="173.29" y1="206.46" x2="137.07" y2="218.83"/>
	<line class="st1" x1="173.28" y1="206.46" x2="137.07" y2="218.83"/>
	<line class="st1" x1="173.29" y1="213.64" x2="137.07" y2="226.01"/>
	<line class="st1" x1="173.11" y1="213.64" x2="136.89" y2="226.01"/>
	<line class="st1" x1="173.37" y1="213.24" x2="137.15" y2="225.6"/>
	<path class="st1" d="M173.2,220.42c-10.46,3.57-20.91,7.14-31.37,10.71"/>
	<line class="st2" x1="137.15" y1="159.33" x2="148.82" y2="188.13"/>
	<line class="st2" x1="172.99" y1="159.33" x2="161.32" y2="188.13"/>
	<g class="st3">
		<polyline class="st4" points="137.12,144 141.7,155.29 146.07,143.91 150.66,155.21 155.03,143.83 159.61,155.13 163.98,143.75 
			168.57,155.04 172.95,143.66 		"/>
	</g>
	<line class="st1" x1="155" y1="72" x2="155" y2="98.33"/>
	<line class="st1" x1="111.34" y1="83.73" x2="124.51" y2="106.54"/>
	<line class="st1" x1="79.4" y1="115.72" x2="102.2" y2="128.89"/>
	<line class="st1" x1="198.72" y1="83.73" x2="185.55" y2="106.54"/>
	<line class="st1" x1="230.66" y1="115.72" x2="207.86" y2="128.89"/>
</g>
<g id="Layer_3" class="st0">
</g>
<g id="Layer_4">
</g>
<g id="Layer_4_copy">
</g>
<g id="Layer_4_copy_2">
	<circle class="st5" cx="148.82" cy="210.47" r="139.82"/>
	<path class="st6" d="M226.06,222.11c-5.83,5.6-15.09,5.42-20.7-0.41l-21.13-21.99c-5.6-5.83-5.42-15.1,0.41-20.7l21.99-21.13
		c5.83-5.6,15.1-5.42,20.7,0.41l21.13,21.99c5.6,5.83,5.42,15.09-0.41,20.7L226.06,222.11z"/>
	<path class="st6" d="M163.29,282.44c5.83-5.6,6.01-14.87,0.41-20.7l-21.13-21.99c-5.6-5.83-14.87-6.01-20.7-0.41l-21.99,21.13
		c-5.83,5.6-6.01,14.87-0.41,20.7l21.13,21.99c5.6,5.83,14.87,6.01,20.7,0.41L163.29,282.44z"/>
	<path class="st6" d="M183.68,262.84c-5.83,5.6-15.09,5.42-20.7-0.41l-21.13-21.99c-5.6-5.83-5.42-15.09,0.41-20.7l21.99-21.13
		c5.83-5.6,15.09-5.42,20.7,0.41l21.13,21.99c5.6,5.83,5.42,15.09-0.41,20.7L183.68,262.84z"/>
	<path class="st6" d="M181.35,181.98c-2.25,7.76-10.36,12.24-18.13,9.99l-29.29-8.48c-7.77-2.25-12.24-10.36-9.99-18.13l8.48-29.29
		c2.25-7.77,10.36-12.24,18.13-9.99l29.29,8.48c7.76,2.25,12.24,10.36,9.99,18.13L181.35,181.98z"/>
	<path class="st6" d="M157.15,265.61c2.25-7.76-2.23-15.88-9.99-18.13l-29.29-8.48c-7.77-2.25-15.88,2.23-18.13,9.99l-8.48,29.29
		c-2.25,7.77,2.23,15.88,9.99,18.13l29.29,8.48c7.77,2.25,15.88-2.23,18.13-9.99L157.15,265.61z"/>
	<path class="st6" d="M165.01,238.44c-2.25,7.77-10.36,12.24-18.13,9.99l-29.29-8.48c-7.77-2.25-12.24-10.36-9.99-18.13l8.48-29.29
		c2.25-7.76,10.36-12.24,18.13-9.99l29.29,8.48c7.77,2.25,12.24,10.36,9.99,18.13L165.01,238.44z"/>
	<path class="st6" d="M121.32,169.13c2.21,7.78-2.3,15.87-10.08,18.08l-29.33,8.33c-7.78,2.21-15.87-2.3-18.08-10.08l-8.33-29.33
		c-2.21-7.78,2.3-15.87,10.08-18.08l29.33-8.33c7.78-2.21,15.87,2.3,18.08,10.08L121.32,169.13z"/>
	<path class="st6" d="M145.12,252.88c-2.21-7.78-10.3-12.29-18.08-10.08l-29.33,8.33c-7.78,2.21-12.29,10.31-10.08,18.08l8.33,29.33
		c2.21,7.78,10.3,12.29,18.08,10.08l29.33-8.33c7.78-2.21,12.29-10.3,10.08-18.08L145.12,252.88z"/>
	<path class="st6" d="M137.39,225.67c2.21,7.78-2.3,15.87-10.08,18.08l-29.33,8.33c-7.78,2.21-15.87-2.3-18.08-10.08l-8.33-29.33
		c-2.21-7.78,2.3-15.87,10.08-18.08l29.33-8.33c7.78-2.21,15.87,2.3,18.08,10.08L137.39,225.67z"/>
	<path class="st7" d="M126.85,275.72c0,3.48-2.82,6.31-6.31,6.31c-3.48,0-6.31-2.82-6.31-6.31c0-3.48,2.82-6.31,6.31-6.31
		C124.02,269.41,126.85,272.23,126.85,275.72z"/>
</g>
</svg>
